<?xml version="1.0" encoding="UTF-8"?>
<svg version="1.1" xmlns="http://www.w3.org/2000/svg" width="600" height="600">
<path d="M0 0 C1.64443123 -0.00233999 1.64443123 -0.00233999 3.32208329 -0.00472724 C6.97892164 -0.00870134 10.63571814 -0.00556148 14.29255676 -0.00241089 C16.92138188 -0.00376656 19.5502068 -0.00554743 22.17903137 -0.00772095 C28.56934496 -0.01215842 34.95964678 -0.01121096 41.34996083 -0.00830831 C46.54842571 -0.00604534 51.74688731 -0.00574563 56.94535255 -0.00683212 C57.6866632 -0.00698536 58.42797384 -0.00713859 59.19174844 -0.00729647 C60.6980074 -0.00761621 62.20426636 -0.00794042 63.71052531 -0.00826906 C77.82368648 -0.01111818 91.93684114 -0.00784623 106.05000124 -0.00246869 C118.13622744 0.00199421 130.22244402 0.00122656 142.30867004 -0.00338745 C156.36530363 -0.00875122 170.42193152 -0.01083869 184.47856599 -0.00777519 C185.98065809 -0.00745666 187.4827502 -0.00714229 188.9848423 -0.00683212 C189.7237631 -0.00667785 190.46268391 -0.00652357 191.22399625 -0.00636462 C196.40826562 -0.00550452 201.59253135 -0.00695148 206.77680016 -0.00931168 C213.10650809 -0.01213012 219.43620364 -0.01132875 225.76591017 -0.00603093 C228.98991437 -0.00342064 232.21389397 -0.00289039 235.43789864 -0.00568008 C268.35029222 -0.03152151 268.35029222 -0.03152151 283.79963684 3.62698364 C285.75769983 4.07608066 287.7160258 4.52403288 289.67463684 4.97073364 C291.01075012 5.27817505 291.01075012 5.27817505 292.37385559 5.59182739 C295.16810713 6.20827258 297.96942701 6.70627678 300.79963684 7.12698364 C300.79963684 7.78698364 300.79963684 8.44698364 300.79963684 9.12698364 C301.37971497 9.32034302 301.95979309 9.51370239 302.55744934 9.71292114 C304.17698361 10.2527659 305.79542668 10.7958923 307.41291809 11.34182739 C309.29815281 11.96201099 311.20251836 12.52402558 313.11213684 13.06448364 C316.20070862 14.2855469 317.4676142 15.78654214 319.79963684 18.12698364 C321.54944629 19.42661241 323.32187189 20.69617376 325.11213684 21.93948364 C337.70120286 31.02231112 346.21833948 43.1622933 352.79963684 57.12698364 C352.79963684 57.78698364 352.79963684 58.44698364 352.79963684 59.12698364 C353.45963684 59.45698364 354.11963684 59.78698364 354.79963684 60.12698364 C354.46963684 60.78698364 354.13963684 61.44698364 353.79963684 62.12698364 C354.45963684 62.45698364 355.11963684 62.78698364 355.79963684 63.12698364 C356.19083064 65.18964186 356.30638203 67.22141632 356.45588684 69.31448364 C356.56932434 69.91260864 356.68276184 70.51073364 356.79963684 71.12698364 C357.45963684 71.45698364 358.11963684 71.78698364 358.79963684 72.12698364 C359.18182451 73.78313022 359.51358786 75.45155389 359.79963684 77.12698364 C360.12963684 77.78698364 360.45963684 78.44698364 360.79963684 79.12698364 C361.00617891 80.83095575 361.16616909 82.54073646 361.29963684 84.25198364 C361.54997123 87.40798509 361.85372033 90.52265981 362.28262615 93.66054535 C362.9120756 98.66530999 363.14633281 103.66960601 363.35305786 108.70718384 C363.39515831 109.71277989 363.43725876 110.71837594 363.48063499 111.7544446 C363.89717378 122.45137345 363.94793263 133.1401419 363.94490051 143.84378052 C363.94790358 146.00687212 363.95130868 148.16996319 363.95507812 150.33305359 C363.96380151 156.13264062 363.96625112 161.93221284 363.96689391 167.7318058 C363.96761062 171.37125929 363.96975641 175.01070916 363.97239113 178.65016174 C363.98160297 191.39162429 363.9857309 204.13307647 363.98493958 216.87454224 C363.98433855 228.68237351 363.99490599 240.49015915 364.01068324 252.29797888 C364.02382093 262.49999372 364.02912094 272.70199375 364.02848417 282.90401697 C364.02823119 288.96919527 364.03097088 295.03433282 364.04166222 301.09950256 C364.05145008 306.80593794 364.05135039 312.51229444 364.04414558 318.21873283 C364.04311318 320.29251663 364.04538081 322.36630563 364.05150604 324.44008064 C364.1027697 343.0233632 363.27569103 361.51673342 359.48323059 379.75198364 C358.78510624 383.19872327 358.26636534 386.64207748 357.79963684 390.12698364 C357.13963684 390.12698364 356.47963684 390.12698364 355.79963684 390.12698364 C355.66428528 390.69803833 355.52893372 391.26909302 355.38948059 391.85745239 C352.37113347 403.22595743 346.28308513 414.03915189 338.67463684 423.00198364 C337.92826965 423.89530396 337.92826965 423.89530396 337.16682434 424.80667114 C335.79963684 426.12698364 335.79963684 426.12698364 333.79963684 426.12698364 C333.79963684 426.78698364 333.79963684 427.44698364 333.79963684 428.12698364 C321.10489605 440.61446336 300.49199894 452.80200707 282.44416809 453.20120239 C281.57147278 453.17671021 280.69877747 453.15221802 279.79963684 453.12698364 C279.46963684 453.78698364 279.13963684 454.44698364 278.79963684 455.12698364 C276.81963684 454.79698364 274.83963684 454.46698364 272.79963684 454.12698364 C272.46963684 454.78698364 272.13963684 455.44698364 271.79963684 456.12698364 C235.577982 456.19578981 199.3563387 456.24858331 163.13463186 456.28017963 C158.84930138 456.28393133 154.56397103 456.28781434 150.27864075 456.29177856 C148.9990504 456.29295896 148.9990504 456.29295896 147.69360974 456.2941632 C133.91723327 456.30718409 120.14089472 456.33081946 106.36454067 456.35844203 C92.2076511 456.3865889 78.05078126 456.40317943 63.89386487 456.40924913 C55.17238805 456.41334641 46.45101844 456.42624307 37.72957465 456.45073304 C31.73268287 456.4667051 25.73584576 456.47135835 19.73893431 456.46748777 C16.28937941 456.46558387 12.84001059 456.46830713 9.39048958 456.48460007 C-26.59709502 456.62936335 -59.19882183 451.72914922 -85.95036316 425.68948364 C-90.20036316 421.41943647 -90.20036316 421.41943647 -90.20036316 419.12698364 C-90.86036316 419.12698364 -91.52036316 419.12698364 -92.20036316 419.12698364 C-93.23825897 417.4836486 -94.2360424 415.81454497 -95.20036316 414.12698364 C-95.86036316 413.46698364 -96.52036316 412.80698364 -97.20036316 412.12698364 C-104.18908765 398.89006175 -109.66692832 385.16360948 -111.74333191 370.26370239 C-112.1232307 367.31057346 -112.1232307 367.31057346 -112.67395496 365.18495846 C-114.9795011 355.00175054 -114.47242069 344.5855281 -114.44328308 334.20925903 C-114.44435734 331.98708541 -114.44629816 329.76491206 -114.44903564 327.54273987 C-114.45386893 321.52514636 -114.44624319 315.50762743 -114.4360826 309.49004292 C-114.4272571 303.16105191 -114.42906055 296.83206293 -114.42944336 290.50306702 C-114.42850745 279.85824194 -114.4198953 269.2134481 -114.40617371 258.56863403 C-114.39214504 247.67963137 -114.38500062 236.79065368 -114.38566589 225.90164185 C-114.38570585 225.23335411 -114.38574581 224.56506637 -114.38578697 223.8765275 C-114.38582733 223.20926845 -114.38586768 222.54200941 -114.38590926 221.85453039 C-114.38664049 208.75496888 -114.37961144 195.65541745 -114.37046266 182.55585933 C-114.36835011 178.81932895 -114.36762402 175.08280053 -114.36722374 171.34626961 C-114.34838246 81.60943341 -114.34838246 81.60943341 -101.26286316 53.12698364 C-100.95131287 52.44482788 -100.63976257 51.76267212 -100.31877136 51.05984497 C-92.43844847 34.65070382 -77.01904297 20.7461361 -61.20036316 12.12698364 C-60.21036316 12.12698364 -59.22036316 12.12698364 -58.20036316 12.12698364 C-57.87036316 11.46698364 -57.54036316 10.80698364 -57.20036316 10.12698364 C-55.48551941 9.38088989 -55.48551941 9.38088989 -53.26286316 8.68948364 C-52.45591003 8.43682739 -51.64895691 8.18417114 -50.81755066 7.92385864 C-49.95387878 7.66088989 -49.09020691 7.39792114 -48.20036316 7.12698364 C-47.31606628 6.84338989 -46.43176941 6.55979614 -45.52067566 6.26760864 C-41.49994221 5.00292691 -38.46568852 4.12698364 -34.20036316 4.12698364 C-33.87036316 3.46698364 -33.54036316 2.80698364 -33.20036316 2.12698364 C-30.57536316 1.74807739 -30.57536316 1.74807739 -27.20036316 1.56448364 C-23.50111989 1.3507302 -19.84378397 1.09140918 -16.16991711 0.61953926 C-10.7739364 0.01405603 -5.42494849 -0.01197107 0 0 Z " fill="#000000" transform="translate(175.2003631591797,71.87301635742188)"/>
<path d="M0 0 C16 0 16 0 23 1 C23.495 27.235 23.495 27.235 24 54 C32.46476414 43.00148085 32.46476414 43.00148085 40.75 31.875 C41.32782227 31.08875244 41.90564453 30.30250488 42.50097656 29.49243164 C44.99023308 26.10509699 47.47584668 22.71509861 49.9609375 19.32470703 C51.88929171 16.69465674 53.81961312 14.06605853 55.75 11.4375 C56.64477051 10.21426025 56.64477051 10.21426025 57.55761719 8.96630859 C58.3876123 7.83636475 58.3876123 7.83636475 59.234375 6.68359375 C59.72131836 6.01900146 60.20826172 5.35440918 60.70996094 4.66967773 C62 3 62 3 64 1 C66.52197266 0.68115234 66.52197266 0.68115234 69.6640625 0.5859375 C70.78554688 0.54726562 71.90703125 0.50859375 73.0625 0.46875 C74.238125 0.4378125 75.41375 0.406875 76.625 0.375 C77.80835938 0.33632812 78.99171875 0.29765625 80.2109375 0.2578125 C83.14046691 0.16331155 86.06998597 0.07775442 89 0 C87.71522795 2.72734276 86.30642771 5.06640084 84.453125 7.44140625 C83.94531494 8.0974585 83.43750488 8.75351074 82.91430664 9.42944336 C82.36508545 10.13335205 81.81586426 10.83726074 81.25 11.5625 C75.83488183 18.56615388 70.54325211 25.64776817 65.33886719 32.80932617 C62.29954728 36.96729649 59.1911227 41.03731602 55.93359375 45.02734375 C55.27544678 45.84082275 54.6172998 46.65430176 53.93920898 47.49243164 C52.6715874 49.04986826 51.38903586 50.59530196 50.09008789 52.12670898 C48.54221926 54.03593058 47.15772236 55.83241982 46 58 C46.11311983 60.68111174 46.11311983 60.68111174 48 63 C48.35900391 63.54527344 48.71800781 64.09054688 49.08789062 64.65234375 C50.43075324 66.65712132 51.83362187 68.60900835 53.25 70.5625 C54.34164978 72.08818121 55.43277438 73.6142383 56.5234375 75.140625 C57.09416992 75.93662109 57.66490234 76.73261719 58.25292969 77.55273438 C61.15585062 81.6190954 64.0146048 85.71616632 66.875 89.8125 C70.55047833 95.07310553 74.23037769 100.33033291 77.9296875 105.57421875 C78.56922363 106.48260498 79.20875977 107.39099121 79.86767578 108.3269043 C81.09566356 110.07077436 82.32571227 111.81319553 83.55810547 113.55395508 C84.11127441 114.3405249 84.66444336 115.12709473 85.234375 115.9375 C85.72131836 116.62714844 86.20826172 117.31679688 86.70996094 118.02734375 C87.97453661 119.9610628 89.01166307 121.91364058 90 124 C66.4571478 127.00272875 66.4571478 127.00272875 59.54296875 122.34472656 C55.44692622 117.96390001 52.78936167 112.78173827 50.20263672 107.41015625 C48.55388311 104.10595494 46.54956818 101.29734922 44.375 98.3125 C41.96872941 94.84516175 39.56802206 91.37423994 37.1796875 87.89453125 C36.69322754 87.18578857 36.20676758 86.4770459 35.70556641 85.74682617 C34.76716785 84.37889228 33.82930171 83.01059291 32.89208984 81.6418457 C32.45848145 81.00980225 32.02487305 80.37775879 31.578125 79.7265625 C31.20075195 79.17564941 30.82337891 78.62473633 30.43457031 78.05712891 C28.31619548 75.01944573 26.1525465 72.0135651 24 69 C23.67 87.15 23.34 105.3 23 124 C15.41 124 7.82 124 0 124 C0 83.08 0 42.16 0 0 Z " fill="#4EF56B" transform="translate(227,191)"/>
<path d="M0 0 C0.82773422 -0.01268417 1.65546844 -0.02536835 2.50828552 -0.03843689 C3.39895218 -0.03550125 4.28961884 -0.03256561 5.20727539 -0.02954102 C6.12577774 -0.03478287 7.04428009 -0.04002472 7.99061584 -0.04542542 C9.93318674 -0.05184886 11.87579651 -0.05050445 13.81835938 -0.04199219 C16.79050023 -0.03348856 19.76071544 -0.06222833 22.73266602 -0.09399414 C24.62003523 -0.0956064 26.50740785 -0.09502816 28.39477539 -0.09204102 C29.72773903 -0.10889198 29.72773903 -0.10889198 31.08763123 -0.12608337 C37.21798028 -0.05686994 37.21798028 -0.05686994 40.45947266 2.24365234 C41.86743164 4.40405273 41.86743164 4.40405273 41.86743164 7.46655273 C40.86743164 10.40405273 40.86743164 10.40405273 36.86743164 13.40405273 C27.62743164 13.40405273 18.38743164 13.40405273 8.86743164 13.40405273 C8.86743164 56.96405273 8.86743164 100.52405273 8.86743164 145.40405273 C18.10743164 145.40405273 27.34743164 145.40405273 36.86743164 145.40405273 C40.86743164 150.40405273 40.86743164 150.40405273 40.74243164 153.59155273 C39.86743164 156.40405273 39.86743164 156.40405273 37.86743164 158.40405273 C36.05262756 158.66474915 36.05262756 158.66474915 33.83251953 158.67871094 C33.00148209 158.68824295 32.17044464 158.69777496 31.31422424 158.70759583 C30.41525925 158.70668442 29.51629425 158.70577301 28.59008789 158.70483398 C27.66779892 158.70911911 26.74550995 158.71340424 25.79527283 158.71781921 C23.84252748 158.72356832 21.88976072 158.72405852 19.93701172 158.71972656 C16.94534829 158.71656901 13.95467565 158.74001003 10.96313477 158.76538086 C9.06795373 158.76765399 7.17277002 158.76835728 5.27758789 158.76733398 C4.38064713 158.77654373 3.48370636 158.78575348 2.55958557 158.79524231 C1.72539597 158.78901352 0.89120636 158.78278473 0.03173828 158.77636719 C-0.70169296 158.77699661 -1.43512421 158.77762604 -2.19078064 158.77827454 C-4.80073288 158.2752839 -5.53252785 157.52446087 -7.13256836 155.40405273 C-7.51009178 152.66944885 -7.51009178 152.66944885 -7.51351929 149.29296875 C-7.52197876 148.01422882 -7.53043823 146.73548889 -7.53915405 145.41799927 C-7.53332094 143.99798457 -7.52717642 142.57797113 -7.52075195 141.15795898 C-7.52481633 139.66486222 -7.53015745 138.17176846 -7.53668213 136.67868042 C-7.5503776 132.62086003 -7.54504797 128.56326804 -7.53554487 124.50544357 C-7.52795979 120.26273728 -7.53499067 116.0200508 -7.53970337 111.77734375 C-7.54516429 104.65190106 -7.53796051 97.52655159 -7.52368164 90.40112305 C-7.50735445 82.15825587 -7.51264272 73.9156113 -7.52916086 65.67274952 C-7.54276617 58.60091907 -7.54470007 51.52915571 -7.53684485 44.4573164 C-7.53216306 40.23128294 -7.53155731 36.00535417 -7.54145432 31.77932739 C-7.55010787 27.80661706 -7.54413183 23.83419425 -7.52677155 19.86151505 C-7.52279804 18.40180057 -7.52395549 16.94206197 -7.53055954 15.48235703 C-7.53873019 13.49329226 -7.52667772 11.50417474 -7.51351929 9.51513672 C-7.51182267 7.84377907 -7.51182267 7.84377907 -7.51009178 6.13865662 C-7.13256836 3.40405273 -7.13256836 3.40405273 -5.72927952 1.54633999 C-3.69855312 0.09355821 -2.48570293 0.01846334 0 0 Z " fill="#4DF76B" transform="translate(163.132568359375,174.595947265625)"/>
<path d="M0 0 C5.44016721 4.35213376 8.56488453 8.33140514 9.8125 15.25 C10.5584924 24.02873203 9.51552872 31.15684222 4.625 38.5625 C-2.04542954 44.93646601 -7.94964359 45.83754221 -16.96118164 45.72045898 C-23.58658766 45.44656115 -28.05007512 44.23869819 -32.91796875 39.6015625 C-39.20404466 32.76302862 -39.72688976 26.10762253 -39.49609375 17.14453125 C-38.96230169 10.40794033 -36.80931389 6.55667822 -32 1.9375 C-22.60911295 -5.42672126 -10.28315579 -5.64565416 0 0 Z " fill="#55F171" transform="translate(436.1875,395.75)"/>
<path d="M0 0 C2.23193359 1.52490234 2.23193359 1.52490234 4.5234375 3.7109375 C5.39323242 4.53432617 6.26302734 5.35771484 7.15917969 6.20605469 C8.09665039 7.12805664 9.03412109 8.05005859 10 9 C10.49213989 9.48376099 10.98427979 9.96752197 11.49133301 10.46594238 C15.23327508 14.15531147 18.9326156 17.88612875 22.625 21.625 C24.78078751 23.80775091 26.93890889 25.98811304 29.1015625 28.1640625 C29.61462952 28.68035217 30.12769653 29.19664185 30.65631104 29.72857666 C34.13003418 33.1978029 37.70932082 36.48003419 41.48974609 39.61083984 C44.05858856 41.97370981 44.97155155 43.57289799 45.20361328 47.05688477 C44.10973863 53.02208154 38.86267293 57.00999396 34.7421875 61.08984375 C33.79550982 62.04311027 32.84965034 62.99718995 31.90457153 63.95204163 C29.92530714 65.94462838 27.93540644 67.92576966 25.9375 69.8996582 C23.38304145 72.4255065 20.8591084 74.97956349 18.34261894 77.54317379 C16.39729693 79.51773375 14.43573672 81.4755045 12.46902847 83.42874336 C11.07735267 84.81723051 9.70025685 86.22028186 8.32345581 87.6235199 C1.2394915 94.55179863 1.2394915 94.55179863 -2.94091797 94.73657227 C-6 94 -6 94 -9 91.375 C-11 88 -11 88 -11.09594727 85.29052734 C-9.45185366 80.35421779 -6.1570988 77.53980222 -2.46484375 73.9765625 C-1.33496788 72.85729874 -1.33496788 72.85729874 -0.18226624 71.71542358 C2.22115793 69.33993915 4.64139517 66.98244843 7.0625 64.625 C8.69710335 63.01547967 10.33058096 61.4048152 11.96289062 59.79296875 C15.96230302 55.84862041 19.97565371 51.91889676 24 48 C20.01772055 43.19476687 15.82750106 38.75403914 11.32421875 34.4375 C10.07152688 33.21690354 8.81959551 31.99552619 7.56835938 30.7734375 C5.62221934 28.87680691 3.67209664 26.98525991 1.70874023 25.10644531 C-0.20426639 23.27228382 -2.09742722 21.41945548 -3.98828125 19.5625 C-4.57676346 19.00812256 -5.16524567 18.45374512 -5.77156067 17.88256836 C-8.70219986 14.97186364 -9.90112419 13.37295049 -10.98901367 9.26953125 C-11 6 -11 6 -9.1875 3.125 C-6.09106091 0.1170306 -4.28015654 -0.47417498 0 0 Z " fill="#53F46F" transform="translate(339,217)"/>
<path d="M0 0 C2.97 0 5.94 0 9 0 C9.33 5.94 9.66 11.88 10 18 C11.65 16.68 13.3 15.36 15 14 C19.64389349 13.41029924 21.95952366 13.55979847 26.25 15.375 C30.88396807 19.79833315 33.14207908 25.65315048 33.4375 32.0625 C32.73651801 38.37133792 31.55770849 43.0918071 27.5 48.0625 C23.82812703 50.71953371 19.90002108 50.62682062 15.50390625 50.44140625 C13 50 13 50 10.3125 48 C9.879375 47.34 9.44625 46.68 9 46 C8.67 47.32 8.34 48.64 8 50 C5.36 50 2.72 50 0 50 C0 33.5 0 17 0 0 Z " fill="#55EC70" transform="translate(316,391)"/>
<path d="M0 0 C3.68225937 3.08755819 5.84649372 5.59285911 6.375 10.4375 C6.189375 11.7059375 6.189375 11.7059375 6 13 C0.64086809 13.43927311 0.64086809 13.43927311 -2 13 C-3.875 10.5625 -3.875 10.5625 -5 8 C-7.3396669 6.83016655 -8.83391527 6.8338759 -11.4375 6.8125 C-12.21996094 6.79832031 -13.00242187 6.78414063 -13.80859375 6.76953125 C-16.29205987 6.85913936 -16.29205987 6.85913936 -19 9 C-19.25030977 11.58380177 -19.25030977 11.58380177 -19 14 C-13.50292788 16.55677773 -7.93137079 18.23616787 -2.0859375 19.83984375 C2.04814653 21.39405002 5.01081853 23.42630221 7.375 27.1875 C8.41566294 31.87048325 8.3709366 36.58551465 5.953125 40.84375 C2.89755281 44.69150758 0.07174682 46.6012412 -4.69921875 47.51953125 C-13.00891314 48.33420717 -19.04382719 47.71986881 -26 42.9375 C-28.647608 40.37262975 -28.98792984 39.60350805 -29.0625 35.875 C-29.041875 34.92625 -29.02125 33.9775 -29 33 C-26.36 32.67 -23.72 32.34 -21 32 C-20.773125 32.78375 -20.54625 33.5675 -20.3125 34.375 C-19.2222289 37.09819416 -19.2222289 37.09819416 -16.9375 38.375 C-12.35692785 39.34958982 -7.24286554 39.12143277 -3 37 C-3 35.02 -3 33.04 -3 31 C-8.49707212 28.44322227 -14.06862921 26.76383213 -19.9140625 25.16015625 C-23.83229069 23.68710084 -27.08384117 21.83231766 -29 18 C-29.57325422 12.98812023 -30.17326753 7.71682531 -27 3.5 C-19.28702038 -2.92748301 -9.23930759 -4.00951084 0 0 Z " fill="#52F26F" transform="translate(481,394)"/>
<path d="M0 0 C1.45742463 -0.08096803 2.91612807 -0.13917774 4.375 -0.1875 C5.18710938 -0.22230469 5.99921875 -0.25710937 6.8359375 -0.29296875 C7.55007812 -0.19628906 8.26421875 -0.09960938 9 0 C11 3 11 3 10.875 6 C10 9 10 9 6 12 C-3.24 12 -12.48 12 -22 12 C-22 55.56 -22 99.12 -22 144 C-12.76 144 -3.52 144 6 144 C10 149 10 149 9.875 152.1875 C9 155 9 155 7 157 C5.18519592 157.26069641 5.18519592 157.26069641 2.96508789 157.2746582 C2.13405045 157.28419022 1.303013 157.29372223 0.4467926 157.30354309 C-0.45217239 157.30263168 -1.35113739 157.30172028 -2.27734375 157.30078125 C-3.19963272 157.30506638 -4.12192169 157.3093515 -5.07215881 157.31376648 C-7.02490416 157.31951559 -8.97767092 157.32000578 -10.93041992 157.31567383 C-13.92208335 157.31251627 -16.91275599 157.3359573 -19.90429688 157.36132812 C-21.79947792 157.36360126 -23.69466162 157.36430455 -25.58984375 157.36328125 C-26.48678452 157.372491 -27.38372528 157.38170074 -28.30784607 157.39118958 C-29.14203568 157.38496078 -29.97622528 157.37873199 -30.83569336 157.37231445 C-31.5691246 157.37294388 -32.30255585 157.3735733 -33.05821228 157.3742218 C-35.66895862 156.87107813 -36.40095822 156.12243261 -38 154 C-38.36914349 151.25701618 -38.36914349 151.25701618 -38.36076355 147.86872864 C-38.36488754 146.58565323 -38.36901154 145.30257782 -38.3732605 143.98062134 C-38.36264301 142.55584507 -38.35173858 141.13107093 -38.34057617 139.70629883 C-38.3397301 138.20833859 -38.34020466 136.71037711 -38.34190369 135.2124176 C-38.34276584 131.14236853 -38.32510465 127.0725837 -38.30418181 123.00259614 C-38.28545157 118.75049818 -38.28366746 114.49839444 -38.28010559 110.2462616 C-38.27077437 102.192712 -38.24614604 94.1392843 -38.21605712 86.08578843 C-38.1825466 76.91783309 -38.16603554 67.74987199 -38.15097082 58.58187068 C-38.1195974 39.72117796 -38.06681601 20.86059877 -38 2 C-37.01 2.495 -37.01 2.495 -36 3 C-35.67 52.83 -35.34 102.66 -35 154 C-21.14 154.33 -7.28 154.66 7 155 C7 152.36 7 149.72 7 147 C5.69796631 147.02356567 5.69796631 147.02356567 4.36962891 147.04760742 C1.15301713 147.09869555 -2.06338813 147.13633027 -5.28027344 147.16479492 C-6.67324622 147.17989358 -8.06617138 147.20037444 -9.45898438 147.22631836 C-11.45942885 147.26265122 -13.46021827 147.27811192 -15.4609375 147.29296875 C-17.26763916 147.31653442 -17.26763916 147.31653442 -19.11083984 147.34057617 C-20.0642627 147.22818604 -21.01768555 147.1157959 -22 147 C-24.24497908 143.63253137 -24.24943407 142.53385444 -24.24723816 138.59677124 C-24.25143265 137.47500992 -24.25562714 136.3532486 -24.25994873 135.19749451 C-24.25432922 133.96620316 -24.24870972 132.7349118 -24.24291992 131.46630859 C-24.24481827 130.17025192 -24.24671661 128.87419525 -24.24867249 127.53886414 C-24.25352228 123.98325606 -24.24586421 120.42777337 -24.23571944 116.87218046 C-24.22694416 113.15572467 -24.22869626 109.43927287 -24.2290802 105.72280884 C-24.22814352 99.48347878 -24.21945782 93.24419734 -24.20581055 87.00488281 C-24.19007123 79.78223427 -24.18481291 72.55963895 -24.1855461 65.3369745 C-24.18615551 58.39739832 -24.18105895 51.45783954 -24.17275429 44.51826859 C-24.16921582 41.56054168 -24.16739024 38.60282093 -24.16686058 35.64509201 C-24.16567359 31.52166966 -24.15597808 27.39831093 -24.14526367 23.27490234 C-24.14571686 22.03956253 -24.14617004 20.80422272 -24.14663696 19.53144836 C-24.14237198 18.41532669 -24.13810699 17.29920502 -24.13371277 16.14926147 C-24.13203692 15.17329199 -24.13036108 14.1973225 -24.12863445 13.19177818 C-24 11 -24 11 -23 10 C-20.71011219 9.84111908 -18.41556559 9.74861927 -16.12109375 9.68359375 C-15.09110008 9.6524221 -15.09110008 9.6524221 -14.04029846 9.62062073 C-11.83947065 9.55505857 -9.63852025 9.49620985 -7.4375 9.4375 C-5.94855486 9.39432108 -4.45962227 9.350707 -2.97070312 9.30664062 C0.68606553 9.1993707 4.34297318 9.09812228 8 9 C8.33 6.69 8.66 4.38 9 2 C6.03 1.67 3.06 1.34 0 1 C0 0.67 0 0.34 0 0 Z " fill="#58CA6B" transform="translate(194,176)"/>
<path d="M0 0 C2.97 0 5.94 0 9 0 C9.33 5.94 9.66 11.88 10 18 C11.65 16.68 13.3 15.36 15 14 C19.06006028 12.9542269 22.23118522 13.58216588 25.875 15.5625 C31.32227816 21.81084848 30.24041439 30.1292728 30.125 37.9375 C30.11597656 39.09830078 30.10695313 40.25910156 30.09765625 41.45507812 C30.07421162 44.30360108 30.04139522 47.15169078 30 50 C27.03 50 24.06 50 21 50 C20.98018066 49.29391602 20.96036133 48.58783203 20.93994141 47.86035156 C20.84459585 44.65653006 20.73495487 41.45335199 20.625 38.25 C20.5940625 37.13882813 20.563125 36.02765625 20.53125 34.8828125 C20.49257813 33.81289063 20.45390625 32.74296875 20.4140625 31.640625 C20.36693115 30.16384277 20.36693115 30.16384277 20.31884766 28.65722656 C19.99897742 25.99147799 19.35631379 24.29383595 18 22 C15.69 22 13.38 22 11 22 C9.96285478 25.11143567 9.79968139 27.49468096 9.68359375 30.76171875 C9.64169922 31.87998047 9.59980469 32.99824219 9.55664062 34.15039062 C9.51732422 35.31763672 9.47800781 36.48488281 9.4375 37.6875 C9.39431641 38.86634766 9.35113281 40.04519531 9.30664062 41.25976562 C9.20048824 44.17305883 9.09843758 47.08643757 9 50 C6.03 50 3.06 50 0 50 C0 33.5 0 17 0 0 Z " fill="#4FF46D" transform="translate(354,391)"/>
<path d="M0 0 C4.10918337 3.21061501 5.8324408 6.5036401 6.48828125 11.60546875 C6.57892385 17.86887245 6.11617195 22.93830655 2.15234375 27.9921875 C-2.67176722 31.66770062 -8.00698134 31.70637388 -13.84765625 30.9921875 C-18.01318207 29.27164423 -20.57934176 26.88072663 -22.84765625 22.9921875 C-24.16313416 16.83422567 -24.57423495 10.78616725 -21.84765625 4.9921875 C-15.9934111 -1.49455147 -8.25142578 -4.5007777 0 0 Z " fill="#000601" transform="translate(429.84765625,402.0078125)"/>
<path d="M0 0 C4.54109533 2.22926498 6.78362333 4.50389885 9 9 C9.34057617 12.04614258 9.34057617 12.04614258 9.29296875 15.39453125 C9.28330078 16.59658203 9.27363281 17.79863281 9.26367188 19.03710938 C9.23853516 20.28298828 9.21339844 21.52886719 9.1875 22.8125 C9.16719727 24.71032227 9.16719727 24.71032227 9.14648438 26.64648438 C9.11118318 29.76475643 9.06186819 32.88216042 9 36 C6.36 36 3.72 36 1 36 C0.67 35.01 0.34 34.02 0 33 C-0.82177734 33.72703125 -0.82177734 33.72703125 -1.66015625 34.46875 C-5.78535158 37.16837699 -10.25294488 36.7232939 -15 36 C-18.1875 34.0625 -18.1875 34.0625 -20 31 C-20.73778384 27.81254325 -20.7965109 25.18027177 -20 22 C-15.8683353 17.02081434 -11.29038726 15.79786162 -5 15 C-1.9375 14.875 -1.9375 14.875 0 15 C-0.66 12.69 -1.32 10.38 -2 8 C-4.97 7.505 -4.97 7.505 -8 7 C-8.495 7.825 -8.99 8.65 -9.5 9.5 C-12 12 -12 12 -14.046875 12.33203125 C-16.03425598 12.31441262 -18.01940609 12.16504949 -20 12 C-19.58443583 7.15175132 -17.62551755 5.11963138 -14 2 C-9.51037797 -0.70130298 -5.10417637 -0.65314105 0 0 Z " fill="#4DF46B" transform="translate(169,405)"/>
<path d="M0 0 C2.97 0 5.94 0 9 0 C9.01981934 0.74685059 9.03963867 1.49370117 9.06005859 2.26318359 C9.15508211 5.63415605 9.26485259 9.00448929 9.375 12.375 C9.4059375 13.550625 9.436875 14.72625 9.46875 15.9375 C9.52675781 17.61972656 9.52675781 17.61972656 9.5859375 19.3359375 C9.6173584 20.37282715 9.6487793 21.4097168 9.68115234 22.47802734 C9.75954472 25.16809835 9.75954472 25.16809835 12 27 C14.45741537 27.50014953 14.45741537 27.50014953 17 27 C19.91786607 23.98106525 20.39703293 21.70681464 20.51171875 17.578125 C20.54716797 16.55332031 20.58261719 15.52851563 20.61914062 14.47265625 C20.64169922 13.40917969 20.66425781 12.34570312 20.6875 11.25 C20.72166016 10.17105469 20.75582031 9.09210938 20.79101562 7.98046875 C20.87340663 5.32041623 20.94258645 2.66068965 21 0 C23.97 0 26.94 0 30 0 C30 11.55 30 23.1 30 35 C27.03 35 24.06 35 21 35 C20.67 34.01 20.34 33.02 20 32 C19.443125 32.48597656 18.88625 32.97195313 18.3125 33.47265625 C14.45866092 36.01801281 10.46110524 35.67660096 6 35 C2.90840573 32.83588401 1.4094654 30.45734893 0 27 C-0.22705078 24.06738281 -0.22705078 24.06738281 -0.1953125 20.703125 C-0.18886719 19.49785156 -0.18242187 18.29257812 -0.17578125 17.05078125 C-0.15064453 15.16939453 -0.15064453 15.16939453 -0.125 13.25 C-0.11597656 11.98027344 -0.10695312 10.71054687 -0.09765625 9.40234375 C-0.07409005 6.26803907 -0.04118832 3.13411459 0 0 Z " fill="#50F06C" transform="translate(184,406)"/>
<path d="M0 0 C1.51683632 -0.01429802 1.51683632 -0.01429802 3.0643158 -0.02888489 C4.16014481 -0.02797348 5.25597382 -0.02706207 6.38500977 -0.02612305 C7.50706314 -0.03040817 8.62911652 -0.0346933 9.78517151 -0.03910828 C12.16162439 -0.04485945 14.53809488 -0.04534608 16.91455078 -0.04101562 C20.55800315 -0.03785776 24.20064239 -0.06129873 27.84399414 -0.08666992 C30.14933165 -0.08894297 32.45467136 -0.08964639 34.76000977 -0.08862305 C36.40071693 -0.10243767 36.40071693 -0.10243767 38.0745697 -0.11653137 C39.59613426 -0.10718819 39.59613426 -0.10718819 41.1484375 -0.09765625 C42.04175278 -0.09828568 42.93506805 -0.0989151 43.85545349 -0.0995636 C46.61718986 0.35303939 47.50571876 1.0312052 49.13891602 3.2746582 C49.7791962 8.39689969 49.7791962 8.39689969 47.9263916 10.93690491 C45.56376103 12.7051063 44.10072778 12.66089059 41.16430664 12.67871094 C39.64758362 12.6977372 39.64758362 12.6977372 38.10021973 12.71714783 C37.009552 12.71421219 35.91888428 12.71127655 34.79516602 12.70825195 C33.67452759 12.7134938 32.55388916 12.71873566 31.39929199 12.72413635 C29.02881703 12.73056284 26.6583102 12.72921151 24.2878418 12.72070312 C20.65298949 12.71219116 17.01970679 12.74095133 13.38500977 12.77270508 C11.08422899 12.77431703 8.78344542 12.77373968 6.48266602 12.77075195 C4.84666443 12.78760292 4.84666443 12.78760292 3.1776123 12.80479431 C2.16646362 12.79541336 1.15531494 12.78603241 0.11352539 12.77636719 C-1.22192322 12.77611794 -1.22192322 12.77611794 -2.58435059 12.77586365 C-4.86108398 12.2746582 -4.86108398 12.2746582 -6.68371582 10.43861389 C-8.34446356 7.38622583 -7.78676888 5.55015862 -6.86108398 2.2746582 C-4.34012128 -0.2463045 -3.48865176 0.01800922 0 0 Z " fill="#56F572" transform="translate(393.861083984375,305.725341796875)"/>
<path d="M0 0 C2.64 0 5.28 0 8 0 C8.01981934 0.60473145 8.03963867 1.20946289 8.06005859 1.83251953 C8.15586299 4.59708509 8.26531555 7.36095174 8.375 10.125 C8.4059375 11.07632812 8.436875 12.02765625 8.46875 13.0078125 C8.67747046 18.01710348 9.05505365 22.30366613 11 27 C13.87364791 27.41746608 13.87364791 27.41746608 17 27 C21.26094165 22.42343304 20.33321267 16.52721554 20.1875 10.6875 C20.17396484 9.66076172 20.16042969 8.63402344 20.14648438 7.57617188 C20.11123883 5.05024091 20.061967 2.5253934 20 0 C22.97 0 25.94 0 29 0 C29 11.55 29 23.1 29 35 C26.36 35 23.72 35 21 35 C20.67 33.68 20.34 32.36 20 31 C19.54625 31.66 19.0925 32.32 18.625 33 C15.15043462 35.64728791 12.69576415 35.62513255 8.4140625 35.4609375 C4.72902889 34.75732267 3.14543873 32.97593114 1 30 C-0.09911549 26.70265354 -0.1139456 24.27041255 -0.09765625 20.80078125 C-0.09443359 19.59228516 -0.09121094 18.38378906 -0.08789062 17.13867188 C-0.07951172 15.87603516 -0.07113281 14.61339844 -0.0625 13.3125 C-0.05573242 11.40114258 -0.05573242 11.40114258 -0.04882812 9.45117188 C-0.03702873 6.30073436 -0.02056597 3.15039051 0 0 Z " fill="#63E47A" transform="translate(280,406)"/>
<path d="M0 0 C3.85544798 1.99657127 5.59805092 3.39707638 8 7 C8.125 9.6875 8.125 9.6875 8 12 C4.6875 12.3125 4.6875 12.3125 1 12 C0 10.33333333 -1 8.66666667 -2 7 C-5.62599422 6.58274322 -5.62599422 6.58274322 -9 7 C-8.95196558 9.43588957 -8.95196558 9.43588957 -8 12 C-5.41815475 13.52223554 -5.41815475 13.52223554 -2.25 14.5 C6.04207921 17.66875884 6.04207921 17.66875884 9 22 C9.77199171 26.03151227 9.19352713 27.65298584 7.1875 31.25 C4.65571088 34.43282061 3.15255762 35.85381445 -0.92578125 36.37109375 C-11.20012254 36.57255142 -11.20012254 36.57255142 -14.75 33.8125 C-16.98017112 31.0247861 -17.79861029 29.52431989 -18 26 C-16.72125 25.938125 -15.4425 25.87625 -14.125 25.8125 C-13.04605469 25.76029297 -13.04605469 25.76029297 -11.9453125 25.70703125 C-11.30335938 25.80371094 -10.66140625 25.90039062 -10 26 C-9.34 26.99 -8.68 27.98 -8 29 C-4.41642759 29.25015873 -4.41642759 29.25015873 -1 29 C-1 27.35 -1 25.7 -1 24 C-1.73605469 23.75765625 -2.47210938 23.5153125 -3.23046875 23.265625 C-14.0388649 19.55336212 -14.0388649 19.55336212 -17 16 C-17.98074724 13.26330411 -18.28939853 10.89398535 -18 8 C-13.99031896 -0.01936208 -8.41942387 -1.10222742 0 0 Z " fill="#54F170" transform="translate(237,405)"/>
<path d="M0 0 C0 3.3 0 6.6 0 10 C3.63 10 7.26 10 11 10 C11 12.31 11 14.62 11 17 C7.37 17 3.74 17 0 17 C0.14016167 20.14618209 0.28684905 23.29181816 0.4375 26.4375 C0.49647461 27.78424805 0.49647461 27.78424805 0.55664062 29.15820312 C0.61948242 30.43920898 0.61948242 30.43920898 0.68359375 31.74609375 C0.73858032 32.93223267 0.73858032 32.93223267 0.79467773 34.14233398 C0.80563257 36.01401441 0.80563257 36.01401441 2 37 C5.36629251 37.14636054 7.78419562 37.07193479 11 36 C11.33 38.31 11.66 40.62 12 43 C7.44187303 45.61514658 3.14290093 45.8018066 -2 45 C-5.0951998 43.44309589 -7.48633086 41.50044949 -8.64624023 38.11230469 C-9.02504746 35.85044123 -9.11315004 33.74620595 -9.09765625 31.453125 C-9.09282227 30.18662109 -9.09282227 30.18662109 -9.08789062 28.89453125 C-9.07951172 28.02183594 -9.07113281 27.14914062 -9.0625 26.25 C-9.05798828 25.36183594 -9.05347656 24.47367187 -9.04882812 23.55859375 C-9.037074 21.37232671 -9.02064249 19.18619821 -9 17 C-10.65 17 -12.3 17 -14 17 C-14 14.69 -14 12.38 -14 10 C-12.35 10 -10.7 10 -9 10 C-9 7.03 -9 4.06 -9 1 C-5.846632 0.29925156 -3.27275026 0 0 0 Z " fill="#53F170" transform="translate(263,396)"/>
<path d="M0 0 C3.07550123 0.05485436 5.61028183 0.37512319 8.53515625 1.30859375 C7.51432292 2.91276042 6.49348958 4.51692708 5.47265625 6.12109375 C4.84230469 7.11882812 4.21195313 8.1165625 3.5625 9.14453125 C2.22672632 11.22926473 0.86514488 13.2977187 -0.5234375 15.34765625 C-1.48443359 16.78238281 -1.48443359 16.78238281 -2.46484375 18.24609375 C-3.06296875 19.12136719 -3.66109375 19.99664062 -4.27734375 20.8984375 C-5.67126584 23.15480378 -5.67126584 23.15480378 -5.18896484 25.22485352 C-4.40813471 27.47178041 -3.42864141 29.11153781 -2.06640625 31.05859375 C-1.586875 31.74953125 -1.10734375 32.44046875 -0.61328125 33.15234375 C-0.11054688 33.86390625 0.3921875 34.57546875 0.91015625 35.30859375 C1.40515625 36.02015625 1.90015625 36.73171875 2.41015625 37.46484375 C4.35302705 40.24927891 6.29882409 43.00545039 8.38671875 45.68359375 C9.53515625 47.30859375 9.53515625 47.30859375 9.53515625 49.30859375 C5.49266093 50.50492215 2.54529069 50.70966541 -1.46484375 49.30859375 C-5.63181573 45.04493106 -8.4361268 39.57363718 -11.27685547 34.37792969 C-12.35989553 32.49140121 -13.54303214 30.80552452 -14.84375 29.06640625 C-16.46484375 26.30859375 -16.46484375 26.30859375 -16.20996094 23.94018555 C-13.90632764 15.80425391 -8.19367979 3.09456903 0 0 Z " fill="#56EE71" transform="translate(136.46484375,391.69140625)"/>
<path d="M0 0 C2.97 0 5.94 0 9 0 C9.68503035 16.00894072 10.15457298 31.97593466 10 48 C6.7 48 3.4 48 0 48 C0 32.16 0 16.32 0 0 Z " fill="#52E66D" transform="translate(109,393)"/>
<path d="M0 0 C4.62177116 1.95536472 6.41207148 4.28879882 8.375 8.75 C10.85554361 15.83875015 10.68937626 21.87690607 8.0234375 28.9453125 C6.33888844 32.32726977 4.45512877 34.549956 1 36 C-2.7956962 36.66562209 -6.21540312 36.76754695 -10 36 C-12.6875 33.5 -12.6875 33.5 -14 31 C-13.34 31 -12.68 31 -12 31 C-12 30.34 -12 29.68 -12 29 C-12.66 29 -13.32 29 -14 29 C-13.505 27.515 -13.505 27.515 -13 26 C-12.34 26.66 -11.68 27.32 -11 28 C-9.08993694 28.3176246 -9.08993694 28.3176246 -7 28.25 C-6.29875 28.25515625 -5.5975 28.2603125 -4.875 28.265625 C-2.7564331 28.15705515 -2.7564331 28.15705515 -1 26 C0.82154657 21.26397893 0.54907645 15.84332808 -0.875 11.0625 C-1.82823451 8.84793921 -1.82823451 8.84793921 -4 8 C-7.37822416 7.85624578 -9.77390955 7.92463652 -13 9 C-13.3125 6.75 -13.3125 6.75 -13 4 C-9.32041291 -0.25452258 -5.3880857 -0.99504923 0 0 Z " fill="#54EE70" transform="translate(339,405)"/>
<path d="M0 0 C16 0 16 0 23 1 C23 18.82 23 36.64 23 55 C22.67 55 22.34 55 22 55 C22 37.51 22 20.02 22 2 C15.4 2 8.8 2 2 2 C2 41.6 2 81.2 2 122 C8.27 122 14.54 122 21 122 C21.495 122.99 21.495 122.99 22 124 C14.74 124 7.48 124 0 124 C0 83.08 0 42.16 0 0 Z " fill="#66E77B" transform="translate(227,191)"/>
<path d="M0 0 C5.9495209 5.79696908 5.9495209 5.79696908 6.11352539 9.70556641 C6.10828857 10.82624512 6.10305176 11.94692383 6.09765625 13.1015625 C6.09443359 14.31328125 6.09121094 15.525 6.08789062 16.7734375 C6.07951172 18.04445313 6.07113281 19.31546875 6.0625 20.625 C6.05798828 21.90375 6.05347656 23.1825 6.04882812 24.5 C6.03701203 27.66671292 6.02053815 30.83333356 6 34 C3.36 34 0.72 34 -2 34 C-2.33 33.01 -2.66 32.02 -3 31 C-3.82177734 31.72703125 -3.82177734 31.72703125 -4.66015625 32.46875 C-8.78535158 35.16837699 -13.25294488 34.7232939 -18 34 C-21.1875 32.0625 -21.1875 32.0625 -23 29 C-23.73778384 25.81254325 -23.7965109 23.18027177 -23 20 C-18.8683353 15.02081434 -14.29038726 13.79786162 -8 13 C-4.9375 12.875 -4.9375 12.875 -3 13 C-3 11.35 -3 9.7 -3 8 C-2.67 8 -2.34 8 -2 8 C-1.19311595 11.94476647 -0.99999571 13.99998285 -2 18 C-7.445 19.485 -7.445 19.485 -13 21 C-13.33 22.98 -13.66 24.96 -14 27 C-8.67829506 27.29562367 -8.67829506 27.29562367 -4 25 C-3.26656572 21.93443402 -3.26656572 21.93443402 -3 19 C-2.67 19 -2.34 19 -2 19 C-1.33459011 23.4083405 -1 27.54860453 -1 32 C0.98 32 2.96 32 5 32 C4.75114188 27.74841318 4.47213338 23.49932981 4.1875 19.25 C4.11724609 18.0434375 4.04699219 16.836875 3.97460938 15.59375 C3.89404297 14.43359375 3.81347656 13.2734375 3.73046875 12.078125 C3.66239014 11.00981445 3.59431152 9.94150391 3.52416992 8.84082031 C2.95308587 5.74574158 1.98334344 4.37987895 0 2 C0 1.34 0 0.68 0 0 Z " fill="#53F16F" transform="translate(172,407)"/>
<path d="M0 0 C3.65102254 0.60850376 4.76579531 1.60380874 7 4.5 C8.56885948 9.20657844 8.55587589 13.67355066 7.125 18.375 C6 20.5 6 20.5 4 22.5 C-3.08012487 23.06191467 -3.08012487 23.06191467 -5.7265625 21.4453125 C-7.66782872 18.47981993 -7.4736337 15.48863143 -7.4375 12.0625 C-7.45683594 10.74378906 -7.47617187 9.42507813 -7.49609375 8.06640625 C-7 4.5 -7 4.5 -5.16015625 2.05859375 C-3 0.5 -3 0.5 0 0 Z " fill="#010901" transform="translate(332,411.5)"/>
<path d="M0 0 C1.98 0 3.96 0 6 0 C6.01981934 0.74685059 6.03963867 1.49370117 6.06005859 2.26318359 C6.15508211 5.63415605 6.26485259 9.00448929 6.375 12.375 C6.4059375 13.550625 6.436875 14.72625 6.46875 15.9375 C6.50742187 17.05898438 6.54609375 18.18046875 6.5859375 19.3359375 C6.6173584 20.37282715 6.6487793 21.4097168 6.68115234 22.47802734 C6.75954472 25.16809835 6.75954472 25.16809835 9 27 C11.32275177 27.40047444 13.65739357 27.7397104 16 28 C16 29.32 16 30.64 16 32 C14.58566794 32.2236337 13.16832382 32.42826476 11.75 32.625 C10.96109375 32.74101562 10.1721875 32.85703125 9.359375 32.9765625 C6.50436366 33.00492354 5.30083534 32.70185754 3 31 C-1.2102891 25.37997365 -0.33462976 18.80997283 -0.1875 12.125 C-0.17396484 10.9596875 -0.16042969 9.794375 -0.14648438 8.59375 C-0.11125821 5.72868882 -0.06199715 2.86458623 0 0 Z " fill="#4CF76B" transform="translate(281,407)"/>
<path d="M0 0 C2.31 0 4.62 0 7 0 C7 10.56 7 21.12 7 32 C5.02 32 3.04 32 1 32 C1 31.01 1 30.02 1 29 C0.01 28.67 -0.98 28.34 -2 28 C-1.67402832 27.28884033 -1.34805664 26.57768066 -1.01220703 25.8449707 C0.05867591 22.83508191 0.23083698 20.65991013 0.1953125 17.48046875 C0.18886719 16.45888672 0.18242187 15.43730469 0.17578125 14.38476562 C0.15064453 12.80211914 0.15064453 12.80211914 0.125 11.1875 C0.11597656 10.11306641 0.10695312 9.03863281 0.09765625 7.93164062 C0.07415306 5.28753146 0.04129575 2.64388128 0 0 Z " fill="#4FF56D" transform="translate(206,407)"/>
<path d="M0 0 C2.97 0 5.94 0 9 0 C9.01981934 0.74685059 9.03963867 1.49370117 9.06005859 2.26318359 C9.15508211 5.63415605 9.26485259 9.00448929 9.375 12.375 C9.4059375 13.550625 9.436875 14.72625 9.46875 15.9375 C9.52675781 17.61972656 9.52675781 17.61972656 9.5859375 19.3359375 C9.6173584 20.37282715 9.6487793 21.4097168 9.68115234 22.47802734 C9.75954472 25.16809835 9.75954472 25.16809835 12 27 C14.45741537 27.50014953 14.45741537 27.50014953 17 27 C19.91786607 23.98106525 20.39703293 21.70681464 20.51171875 17.578125 C20.54716797 16.55332031 20.58261719 15.52851563 20.61914062 14.47265625 C20.64169922 13.40917969 20.66425781 12.34570312 20.6875 11.25 C20.72166016 10.17105469 20.75582031 9.09210938 20.79101562 7.98046875 C20.87340663 5.32041623 20.94258645 2.66068965 21 0 C23.97 0 26.94 0 30 0 C30 11.55 30 23.1 30 35 C27.03 35 24.06 35 21 35 C20.67 34.01 20.34 33.02 20 32 C19.17242187 32.73669922 19.17242187 32.73669922 18.328125 33.48828125 C15.53629931 35.30109424 14.03814259 35.3172951 10.75 35.1875 C9.41195312 35.14689453 9.41195312 35.14689453 8.046875 35.10546875 C7.37140625 35.07066406 6.6959375 35.03585937 6 35 C6 34.34 6 33.68 6 33 C11.445 32.505 11.445 32.505 17 32 C17.33 31.01 17.66 30.02 18 29 C15.98177083 29.09765625 13.96354167 29.1953125 11.9453125 29.29296875 C11.30335938 29.19628906 10.66140625 29.09960938 10 29 C7.70244078 25.55366118 7.76356024 24.28931609 7.8046875 20.23828125 C7.81435547 18.56088867 7.81435547 18.56088867 7.82421875 16.84960938 C7.84097656 15.68236328 7.85773438 14.51511719 7.875 13.3125 C7.88402344 12.13365234 7.89304688 10.95480469 7.90234375 9.74023438 C7.92593577 6.82661974 7.9588546 3.91341108 8 1 C5.69 1 3.38 1 1 1 C0.67 1.66 0.34 2.32 0 3 C0 2.01 0 1.02 0 0 Z M22 1 C22.01571045 2.0058313 22.01571045 2.0058313 22.03173828 3.03198242 C22.07343171 6.08378316 22.09936853 9.13552384 22.125 12.1875 C22.15013672 13.77014648 22.15013672 13.77014648 22.17578125 15.38476562 C22.18222656 16.40634766 22.18867188 17.42792969 22.1953125 18.48046875 C22.20578613 19.41785889 22.21625977 20.35524902 22.22705078 21.32104492 C21.98166713 24.21630812 21.20521619 26.37062697 20 29 C20.99 29.33 21.98 29.66 23 30 C23 30.99 23 31.98 23 33 C24.98 33 26.96 33 29 33 C29 22.44 29 11.88 29 1 C26.69 1 24.38 1 22 1 Z " fill="#75E78A" transform="translate(184,406)"/>
<path d="M0 0 C1.32 0 2.64 0 4 0 C4 10.23 4 20.46 4 31 C2.35 31 0.7 31 -1 31 C-1 29.68 -1 28.36 -1 27 C-2.32 27 -3.64 27 -5 27 C-5 26.34 -5 25.68 -5 25 C-4.34 24.67 -3.68 24.34 -3 24 C-2.06851397 21.20554192 -1.8266176 19.2721537 -1.71875 16.3671875 C-1.68136719 15.47902344 -1.64398438 14.59085937 -1.60546875 13.67578125 C-1.53486247 11.80079229 -1.4645524 9.92579215 -1.39453125 8.05078125 C-1.35714844 7.16519531 -1.31976563 6.27960938 -1.28125 5.3671875 C-1.25095703 4.55362793 -1.22066406 3.74006836 -1.18945312 2.90185547 C-1 1 -1 1 0 0 Z " fill="#4CF86A" transform="translate(303,408)"/>
<path d="M0 0 C2.97 0 5.94 0 9 0 C9 6.27 9 12.54 9 19 C8.34 19 7.68 19 7 19 C7 13.39 7 7.78 7 2 C5.02 2 3.04 2 1 2 C1.0721875 3.14210938 1.144375 4.28421875 1.21875 5.4609375 C2.0515281 19.64636976 2.10894591 33.79345382 2 48 C3.98 48 5.96 48 8 48 C8 40.41 8 32.82 8 25 C8.33 25 8.66 25 9 25 C9 33.25 9 41.5 9 50 C6.03 50 3.06 50 0 50 C0 33.5 0 17 0 0 Z " fill="#5BCA6F" transform="translate(354,391)"/>
<path d="M0 0 C5.9495209 5.79696908 5.9495209 5.79696908 6.11352539 9.70556641 C6.10828857 10.82624512 6.10305176 11.94692383 6.09765625 13.1015625 C6.09443359 14.31328125 6.09121094 15.525 6.08789062 16.7734375 C6.07951172 18.04445313 6.07113281 19.31546875 6.0625 20.625 C6.05798828 21.90375 6.05347656 23.1825 6.04882812 24.5 C6.03701203 27.66671292 6.02053815 30.83333356 6 34 C3.36 34 0.72 34 -2 34 C-2.33 33.01 -2.66 32.02 -3 31 C-3.81984375 31.72896484 -3.81984375 31.72896484 -4.65625 32.47265625 C-8.74057467 35.1342745 -13.29471697 34.67830332 -18 34 C-20.6875 32 -20.6875 32 -22 30 C-21.67 29.34 -21.34 28.68 -21 28 C-19.68 28.66 -18.36 29.32 -17 30 C-17 30.66 -17 31.32 -17 32 C-13.7 32 -10.4 32 -7 32 C-7 31.01 -7 30.02 -7 29 C-8.65 29 -10.3 29 -12 29 C-12 28.67 -12 28.34 -12 28 C-10.88625 27.814375 -9.7725 27.62875 -8.625 27.4375 C-7.42875 26.963125 -6.2325 26.48875 -5 26 C-3.45913678 22.48599332 -3.45913678 22.48599332 -3 19 C-2.67 19 -2.34 19 -2 19 C-1.33459011 23.4083405 -1 27.54860453 -1 32 C0.98 32 2.96 32 5 32 C4.75114188 27.74841318 4.47213338 23.49932981 4.1875 19.25 C4.11724609 18.0434375 4.04699219 16.836875 3.97460938 15.59375 C3.89404297 14.43359375 3.81347656 13.2734375 3.73046875 12.078125 C3.66239014 11.00981445 3.59431152 9.94150391 3.52416992 8.84082031 C2.95308587 5.74574158 1.98334344 4.37987895 0 2 C0 1.34 0 0.68 0 0 Z " fill="#61DB77" transform="translate(172,407)"/>
<path d="M0 0 C3.34208352 2.91084694 4.39775898 4.64476448 5 9 C5.07869838 10.98438396 5.10784044 12.97111348 5.09765625 14.95703125 C5.09443359 16.06884766 5.09121094 17.18066406 5.08789062 18.32617188 C5.07951172 19.47666016 5.07113281 20.62714844 5.0625 21.8125 C5.05798828 22.98232422 5.05347656 24.15214844 5.04882812 25.35742188 C5.0370693 28.23833358 5.02063426 31.11914044 5 34 C2.03 34 -0.94 34 -4 34 C-4 25.75 -4 17.5 -4 9 C-3.34 8.67 -2.68 8.34 -2 8 C-2 15.92 -2 23.84 -2 32 C-0.35 32 1.3 32 3 32 C2.88940687 27.97863607 2.7589472 23.95814845 2.625 19.9375 C2.5940625 18.80376953 2.563125 17.67003906 2.53125 16.50195312 C2.32724898 10.67092404 1.96723644 5.5098614 0 0 Z " fill="#63DA79" transform="translate(379,407)"/>
<path d="M0 0 C2.64 0 5.28 0 8 0 C8.01981934 0.60473145 8.03963867 1.20946289 8.06005859 1.83251953 C8.15586299 4.59708509 8.26531555 7.36095174 8.375 10.125 C8.4059375 11.07632812 8.436875 12.02765625 8.46875 13.0078125 C8.67747046 18.01710348 9.05505365 22.30366613 11 27 C13.31 27 15.62 27 18 27 C18 27.66 18 28.32 18 29 C19.32 29.33 20.64 29.66 22 30 C18.4511486 33.73563305 16.17112733 35.39030819 10.9375 35.625 C7.1020451 35.43438251 6.13179519 35.09951881 2.9375 32.6875 C0.00307677 28.617171 -0.12064619 25.69763777 -0.09765625 20.80078125 C-0.09443359 19.59228516 -0.09121094 18.38378906 -0.08789062 17.13867188 C-0.07951172 15.87603516 -0.07113281 14.61339844 -0.0625 13.3125 C-0.05573242 11.40114258 -0.05573242 11.40114258 -0.04882812 9.45117188 C-0.03702873 6.30073436 -0.02056597 3.15039051 0 0 Z M1 1 C0.88313557 5.02058602 0.81252612 9.04073082 0.75 13.0625 C0.71648437 14.19623047 0.68296875 15.32996094 0.6484375 16.49804688 C0.57002047 23.22230678 0.82716711 27.60211526 5 33 C8.98715997 34.72417728 12.80970558 33.73946372 17 33 C17 31.68 17 30.36 17 29 C15.88625 28.87625 14.7725 28.7525 13.625 28.625 C10 28 10 28 8 26 C7.68115234 23.47802734 7.68115234 23.47802734 7.5859375 20.3359375 C7.54726563 19.21445312 7.50859375 18.09296875 7.46875 16.9375 C7.4378125 15.761875 7.406875 14.58625 7.375 13.375 C7.33632813 12.19164062 7.29765625 11.00828125 7.2578125 9.7890625 C7.16331155 6.85953309 7.07775442 3.93001403 7 1 C5.02 1 3.04 1 1 1 Z " fill="#70EC87" transform="translate(280,406)"/>
<path d="M0 0 C1.45742463 -0.08096803 2.91612807 -0.13917774 4.375 -0.1875 C5.18710938 -0.22230469 5.99921875 -0.25710937 6.8359375 -0.29296875 C7.55007812 -0.19628906 8.26421875 -0.09960938 9 0 C11 3 11 3 10.875 6 C9.83636163 9.56104586 9.18305083 10.20978022 6 12 C2.88378906 12.34057617 2.88378906 12.34057617 -0.734375 12.29296875 C-2.02988281 12.28330078 -3.32539063 12.27363281 -4.66015625 12.26367188 C-6.02344354 12.23860783 -7.38672479 12.21321302 -8.75 12.1875 C-10.12889184 12.17244518 -11.50779935 12.15875817 -12.88671875 12.14648438 C-16.25798064 12.11112149 -19.62903986 12.05731481 -23 12 C-23 16.62 -23 21.24 -23 26 C-23.33 26 -23.66 26 -24 26 C-24.02685095 23.52076199 -24.04676547 21.0418116 -24.0625 18.5625 C-24.07506836 17.50192383 -24.07506836 17.50192383 -24.08789062 16.41992188 C-24.09653588 14.61306441 -24.05220011 12.80612397 -24 11 C-22.08780415 9.08780415 -18.66354496 9.75564702 -16.12109375 9.68359375 C-15.09110008 9.6524221 -15.09110008 9.6524221 -14.04029846 9.62062073 C-11.83947065 9.55505857 -9.63852025 9.49620985 -7.4375 9.4375 C-5.94855486 9.39432108 -4.45962227 9.350707 -2.97070312 9.30664062 C0.68606553 9.1993707 4.34297318 9.09812228 8 9 C8.33 6.69 8.66 4.38 9 2 C6.03 1.67 3.06 1.34 0 1 C0 0.67 0 0.34 0 0 Z " fill="#52C866" transform="translate(194,176)"/>
<path d="M0 0 C0 3.3 0 6.6 0 10 C3.63 10 7.26 10 11 10 C11 12.31 11 14.62 11 17 C7.37 17 3.74 17 0 17 C0 23.27 0 29.54 0 36 C-0.66 36 -1.32 36 -2 36 C-2.02888514 32.85418577 -2.04675923 29.70840531 -2.0625 26.5625 C-2.07087891 25.66466797 -2.07925781 24.76683594 -2.08789062 23.84179688 C-2.09111328 22.98779297 -2.09433594 22.13378906 -2.09765625 21.25390625 C-2.10289307 20.46314697 -2.10812988 19.6723877 -2.11352539 18.85766602 C-2 17 -2 17 -1 16 C0.85287502 15.92773498 2.70833878 15.9161878 4.5625 15.9375 C5.57441406 15.94652344 6.58632813 15.95554687 7.62890625 15.96484375 C8.80259766 15.98224609 8.80259766 15.98224609 10 16 C10 14.35 10 12.7 10 11 C9.21753906 11.01160156 8.43507813 11.02320313 7.62890625 11.03515625 C6.61699219 11.04417969 5.60507812 11.05320312 4.5625 11.0625 C3.55316406 11.07410156 2.54382813 11.08570313 1.50390625 11.09765625 C-1 11 -1 11 -2 10 C-2.14115161 7.32941149 -2.04247107 4.67567762 -2 2 C-3.98 2 -5.96 2 -8 2 C-8 4.64 -8 7.28 -8 10 C-8.33 10 -8.66 10 -9 10 C-9 7.03 -9 4.06 -9 1 C-5.846632 0.29925156 -3.27275026 0 0 0 Z " fill="#6ADA7E" transform="translate(263,396)"/>
<path d="M0 0 C4.23580253 -0.07407906 8.47126341 -0.12856696 12.70751953 -0.16479492 C14.14899258 -0.17989483 15.59041959 -0.20037658 17.03173828 -0.22631836 C19.10200343 -0.2626513 21.17166207 -0.27971329 23.2421875 -0.29296875 C24.4885498 -0.3086792 25.73491211 -0.32438965 27.01904297 -0.34057617 C28.00275879 -0.22818604 28.98647461 -0.1157959 30 0 C32 3 32 3 31.75 6.0625 C31 9 31 9 29 11 C25.91475061 11.17553419 22.92035798 11.23122797 19.8359375 11.1953125 C18.47512558 11.19106766 18.47512558 11.19106766 17.08682251 11.18673706 C14.18274877 11.17552153 11.27898088 11.15041463 8.375 11.125 C6.40885861 11.11497197 4.4427124 11.10584581 2.4765625 11.09765625 C-2.34907659 11.07557772 -7.1744864 11.04103865 -12 11 C-12 10.67 -12 10.34 -12 10 C1.53 9.67 15.06 9.34 29 9 C29 6.36 29 3.72 29 1 C19.43 1 9.86 1 0 1 C0 0.67 0 0.34 0 0 Z " fill="#73ED88" transform="translate(172,322)"/>
<path d="M0 0 C0.48176187 6.3833448 0.48176187 6.3833448 -1.5625 9 C-4.96372991 10.39537637 -7.4655107 9.74768043 -11 9 C-11 7.02 -11 5.04 -11 3 C-9.73160474 2.49384702 -8.46016898 1.99530901 -7.1875 1.5 C-6.12595703 1.08234375 -6.12595703 1.08234375 -5.04296875 0.65625 C-3 0 -3 0 0 0 Z " fill="#011202" transform="translate(169,425)"/>
<path d="M0 0 C-1.33333333 0.66666667 -2.66666667 1.33333333 -4 2 C-5.010625 2.515625 -6.02125 3.03125 -7.0625 3.5625 C-10 5 -10 5 -13 6 C-13 7.32 -13 8.64 -13 10 C-11.68 10 -10.36 10 -9 10 C-8.896875 9.38125 -8.79375 8.7625 -8.6875 8.125 C-8 6 -8 6 -5 4 C-2.5 3.6875 -2.5 3.6875 0 4 C1.8125 5.5 1.8125 5.5 3 7 C2.67 7.66 2.34 8.32 2 9 C1.01 8.34 0.02 7.68 -1 7 C-3.54713404 7.00922702 -3.54713404 7.00922702 -6 8 C-6.6496875 9.0209375 -6.6496875 9.0209375 -7.3125 10.0625 C-9 12 -9 12 -10.9609375 12.26171875 C-12.97581992 12.25111411 -14.98940773 12.13184212 -17 12 C-16.58443583 7.15175132 -14.62551755 5.11963138 -11 2 C-7.47210321 -0.46952775 -4.21449936 -0.16209613 0 0 Z " fill="#61D976" transform="translate(166,405)"/>
<path d="M0 0 C0.66 0 1.32 0 2 0 C2 0.66 2 1.32 2 2 C2.66 2 3.32 2 4 2 C8 8.75 8 8.75 8 11 C15.92 11 23.84 11 32 11 C32 10.34 32 9.68 32 9 C32.99 9.33 33.98 9.66 35 10 C35.495 11.485 35.495 11.485 36 13 C11.47424846 14.91147944 11.47424846 14.91147944 5.88867188 11.83837891 C2.74741647 8.80845152 1.16464575 5.14162289 0 1 C0 0.67 0 0.34 0 0 Z " fill="#6FEB84" transform="translate(281,302)"/>
<path d="M0 0 C0.33 0 0.66 0 1 0 C1.80688405 3.94476647 2.00000429 5.99998285 1 10 C-4.445 11.485 -4.445 11.485 -10 13 C-10.33 14.98 -10.66 16.96 -11 19 C-12.5625 17.75 -12.5625 17.75 -14 16 C-14.125 14 -14.125 14 -13 12 C-9.5625 10.3125 -9.5625 10.3125 -6 9 C-5.34 8.67 -4.68 8.34 -4 8 C-6.31 8 -8.62 8 -11 8 C-11 7.34 -11 6.68 -11 6 C-5.555 5.505 -5.555 5.505 0 5 C0 3.35 0 1.7 0 0 Z " fill="#64ED7C" transform="translate(169,415)"/>
<path d="M0 0 C2.97 0 5.94 0 9 0 C9 6.27 9 12.54 9 19 C8.34 19 7.68 19 7 19 C7 13.39 7 7.78 7 2 C5.02 2 3.04 2 1 2 C1 7.61 1 13.22 1 19 C0.67 19 0.34 19 0 19 C0 12.73 0 6.46 0 0 Z " fill="#69DD7E" transform="translate(354,391)"/>
<path d="M0 0 C1.485 0.99 1.485 0.99 3 2 C4.95214625 2.31478577 4.95214625 2.31478577 7 2.25 C7.680625 2.25515625 8.36125 2.2603125 9.0625 2.265625 C11.32416007 2.09917603 11.32416007 2.09917603 14 0 C13.67 1.32 13.34 2.64 13 4 C11.35 4.33 9.7 4.66 8 5 C7.67 5.99 7.34 6.98 7 8 C9.64 8 12.28 8 15 8 C15 8.66 15 9.32 15 10 C11.29013428 10.28783441 7.70001295 10.45251957 4 10 C1.3125 7.5 1.3125 7.5 0 5 C0.66 5 1.32 5 2 5 C2 4.34 2 3.68 2 3 C1.34 3 0.68 3 0 3 C0 2.01 0 1.02 0 0 Z " fill="#5FEB78" transform="translate(325,431)"/>
<path d="M0 0 C0.89203125 0.01804687 1.7840625 0.03609375 2.703125 0.0546875 C3.71632812 0.08949219 3.71632812 0.08949219 4.75 0.125 C4.75 0.785 4.75 1.445 4.75 2.125 C3.203125 2.0940625 3.203125 2.0940625 1.625 2.0625 C-3.38776287 2.11372175 -3.38776287 2.11372175 -8.25 3.125 C-10.32854114 6.19762604 -10.26184177 7.99000381 -9.9375 11.6875 C-9.43644205 14.19278974 -8.93858323 16.66577417 -8.25 19.125 C-10.1875 18.125 -10.1875 18.125 -12.25 16.125 C-13.53560499 11.22363097 -13.84298818 9.31097636 -11.5625 4.75 C-7.97898369 0.68222473 -5.36484999 -0.14118026 0 0 Z " fill="#63D677" transform="translate(232.25,404.875)"/>
<path d="M0 0 C0.33 0 0.66 0 1 0 C1 11.22 1 22.44 1 34 C-1.97 34 -4.94 34 -8 34 C-8 32.35 -8 30.7 -8 29 C-7.34 29 -6.68 29 -6 29 C-6 29.99 -6 30.98 -6 32 C-4.02 32 -2.04 32 0 32 C0 21.44 0 10.88 0 0 Z " fill="#64CB77" transform="translate(213,407)"/>
<path d="M0 0 C0.33 0 0.66 0 1 0 C1.01981934 0.6705542 1.03963867 1.3411084 1.06005859 2.03198242 C1.15559715 5.08420161 1.26515945 8.13576341 1.375 11.1875 C1.4059375 12.24259766 1.436875 13.29769531 1.46875 14.38476562 C1.50742188 15.40634766 1.54609375 16.42792969 1.5859375 17.48046875 C1.6173584 18.41785889 1.6487793 19.35524902 1.68115234 20.32104492 C2.02022831 23.16995808 2.82257457 25.39520444 4 28 C3.34 28 2.68 28 2 28 C2 34.27 2 40.54 2 47 C1.67 47 1.34 47 1 47 C-0.00090639 31.32509099 -0.11531128 15.70362179 0 0 Z " fill="#0D3713" transform="translate(118,393)"/>
<path d="M0 0 C-1.55500981 3.81684226 -4.03595495 6.19195732 -7 9 C-7 8.01 -7 7.02 -7 6 C-6.34 6 -5.68 6 -5 6 C-5 4.68 -5 3.36 -5 2 C-15.395 2.495 -15.395 2.495 -26 3 C-25.67 2.34 -25.34 1.68 -25 1 C-21.77093849 0.83125405 -18.54173589 0.66537263 -15.3125 0.5 C-14.40048828 0.45230469 -13.48847656 0.40460938 -12.54882812 0.35546875 C-11.66259766 0.31035156 -10.77636719 0.26523438 -9.86328125 0.21875 C-9.05157471 0.17685547 -8.23986816 0.13496094 -7.40356445 0.09179688 C-4.93328996 -0.00254779 -2.47182511 -0.01538879 0 0 Z " fill="#66DC7B" transform="translate(316,191)"/>
<path d="M0 0 C1.11375 0.495 1.11375 0.495 2.25 1 C1.59 1.66 0.93 2.32 0.25 3 C-0.554375 2.649375 -1.35875 2.29875 -2.1875 1.9375 C-6.66610969 0.7589185 -10.28544952 0.73810559 -14.75 2 C-17.14624958 3.45504751 -18.73857806 4.98857806 -20.75 7 C-21.41 7.66 -22.07 8.32 -22.75 9 C-22.75 5 -22.75 5 -21.640625 3.296875 C-15.28983403 -2.69101363 -8.09301062 -2.15813617 0 0 Z " fill="#67E57D" transform="translate(429.75,400)"/>
<path d="M0 0 C1.27875 -0.061875 2.5575 -0.12375 3.875 -0.1875 C4.95394531 -0.23970703 4.95394531 -0.23970703 6.0546875 -0.29296875 C6.69664062 -0.19628906 7.33859375 -0.09960938 8 0 C8.66 0.99 9.32 1.98 10 3 C13.56769552 3.73606499 13.56769552 3.73606499 17 4 C17 4.33 17 4.66 17 5 C15.58376784 5.05447047 14.16691809 5.09300508 12.75 5.125 C11.96109375 5.14820313 11.1721875 5.17140625 10.359375 5.1953125 C7.79268059 4.9828378 6.2083933 4.28654105 4 3 C3.67 4.32 3.34 5.64 3 7 C0 3.375 0 3.375 0 0 Z " fill="#68E37E" transform="translate(219,431)"/>
<path d="M0 0 C0.99 0.495 0.99 0.495 2 1 C2.4140625 3.94140625 2.4140625 3.94140625 2.625 7.5625 C2.69976562 8.76003906 2.77453125 9.95757812 2.8515625 11.19140625 C2.90054687 12.11824219 2.94953125 13.04507812 3 14 C3.99 14.33 4.98 14.66 6 15 C4.02 16.32 2.04 17.64 0 19 C0 12.73 0 6.46 0 0 Z " fill="#001F01" transform="translate(363,391)"/>
<path d="M0 0 C0.5775 0.20625 1.155 0.4125 1.75 0.625 C-4.04922747 4.56550071 -10.67797617 5.38955248 -17.5859375 4.234375 C-19.5 3.6875 -19.5 3.6875 -22.25 2.625 C-22.25 2.295 -22.25 1.965 -22.25 1.625 C-20.58710938 1.65980469 -20.58710938 1.65980469 -18.890625 1.6953125 C-17.42709008 1.71407577 -15.96354786 1.73227537 -14.5 1.75 C-13.77039063 1.76675781 -13.04078125 1.78351563 -12.2890625 1.80078125 C-7.98119823 1.83994365 -3.81054502 -0.63509084 0 0 Z " fill="#61D375" transform="translate(482.25,437.375)"/>
<path d="M0 0 C0.99 0.33 1.98 0.66 3 1 C3.73046875 3.06640625 3.73046875 3.06640625 4.1875 5.5625 C4.34605469 6.38878906 4.50460937 7.21507812 4.66796875 8.06640625 C4.77753906 8.70449219 4.88710938 9.34257812 5 10 C2.54438955 12.80641195 0.72617673 13.93578671 -3.00390625 14.265625 C-6.01123516 14.25142274 -8.99779002 14.17237569 -12 14 C-12 13.34 -12 12.68 -12 12 C-11.40832031 12.02320313 -10.81664062 12.04640625 -10.20703125 12.0703125 C-5.66198041 12.17411464 -2.14059941 12.13708357 2 10 C2.40749675 5.74268432 2.40749675 5.74268432 0.5 2.125 C0.005 1.75375 -0.49 1.3825 -1 1 C-0.67 0.67 -0.34 0.34 0 0 Z " fill="#66E47C" transform="translate(476,421)"/>
<path d="M0 0 C1.32 0.33 2.64 0.66 4 1 C4.97403725 4.26225174 5.13415799 7.22738661 5.125 10.625 C5.12757813 11.58664062 5.13015625 12.54828125 5.1328125 13.5390625 C5 16 5 16 4 18 C3.34 18 2.68 18 2 18 C2.02320313 17.20335937 2.04640625 16.40671875 2.0703125 15.5859375 C2.23848592 7.605026 2.23848592 7.605026 0 0 Z " fill="#60E879" transform="translate(337,413)"/>
<path d="M0 0 C0.99 0.33 1.98 0.66 3 1 C2.319375 1.680625 1.63875 2.36125 0.9375 3.0625 C-1.36385156 5.93586124 -1.36385156 5.93586124 -0.875 9.75 C-0.58625 10.8225 -0.2975 11.895 0 13 C0.66 13.33 1.32 13.66 2 14 C-1 14 -1 14 -2.75 12.4375 C-4.54082034 8.94540033 -3.95158006 6.73835025 -3 3 C-1.4375 1.0625 -1.4375 1.0625 0 0 Z " fill="#6AEC80" transform="translate(332,218)"/>
<path d="M0 0 C0.66 0.33 1.32 0.66 2 1 C1.50628906 1.556875 1.01257813 2.11375 0.50390625 2.6875 C-3.84903092 7.87248754 -5.87620078 11.19104269 -6 18 C-6.33 18 -6.66 18 -7 18 C-7.86101859 7.24683455 -7.86101859 7.24683455 -4.625 3.375 C-2 1 -2 1 0 0 Z " fill="#62E37A" transform="translate(459,394)"/>
<path d="M0 0 C0 3.3 0 6.6 0 10 C-0.66 10 -1.32 10 -2 10 C-2 7.36 -2 4.72 -2 2 C-3.98 2 -5.96 2 -8 2 C-8 4.64 -8 7.28 -8 10 C-8.33 10 -8.66 10 -9 10 C-9 7.03 -9 4.06 -9 1 C-5.846632 0.29925156 -3.27275026 0 0 0 Z " fill="#5CCC71" transform="translate(263,396)"/>
<path d="M0 0 C2 1 2 1 3.125 4.0625 C3.41375 5.031875 3.7025 6.00125 4 7 C6.31 7 8.62 7 11 7 C11 7.66 11 8.32 11 9 C12.32 9.33 13.64 9.66 15 10 C12.525 11.485 12.525 11.485 10 13 C10 11.68 10 10.36 10 9 C8.906875 9.061875 7.81375 9.12375 6.6875 9.1875 C3 9 3 9 1.0625 7.875 C-0.44484863 5.214973 -0.19986253 2.99793795 0 0 Z " fill="#65ED7D" transform="translate(287,426)"/>
<path d="M0 0 C3.15710472 2.44421011 3.96786933 3.86933528 4.9375 7.8125 C5.31934014 12.23686509 4.02578621 15.11049047 2 19 C1.06576355 15.98968256 0.95550089 15.13349732 2 12 C2.25343766 7.43812214 2.00169177 4.12848928 0 0 Z " fill="#62D677" transform="translate(484,417)"/>
<path d="M0 0 C0.66 0 1.32 0 2 0 C2.49230769 6.4 2.49230769 6.4 0 9.4375 C-0.99 10.2109375 -0.99 10.2109375 -2 11 C-2.33 9.02 -2.66 7.04 -3 5 C-2.34 5 -1.68 5 -1 5 C-0.67 3.35 -0.34 1.7 0 0 Z M-9 11 C-6.69 11 -4.38 11 -2 11 C-2 11.33 -2 11.66 -2 12 C-4.31 12 -6.62 12 -9 12 C-9 11.67 -9 11.34 -9 11 Z " fill="#011803" transform="translate(247,406)"/>
<path d="M0 0 C0.99 0.33 1.98 0.66 3 1 C3.33 2.32 3.66 3.64 4 5 C7.3 4.67 10.6 4.34 14 4 C14.33 4.99 14.66 5.98 15 7 C11.37 7 7.74 7 4 7 C2.02 3.535 2.02 3.535 0 0 Z " fill="#64CC77" transform="translate(131,434)"/>
<path d="M0 0 C0.33 1.32 0.66 2.64 1 4 C-0.43359375 6.359375 -0.43359375 6.359375 -2.4375 8.75 C-3.42556641 9.94882813 -3.42556641 9.94882813 -4.43359375 11.171875 C-4.95050781 11.77515625 -5.46742188 12.3784375 -6 13 C-6.99 12.67 -7.98 12.34 -9 12 C-6.03 8.04 -3.06 4.08 0 0 Z " fill="#63E17A" transform="translate(272,217)"/>
<path d="M0 0 C3.76854223 1.25618074 4.07958456 2.66014706 6 6 C6.66 6.33 7.32 6.66 8 7 C8.73075648 9.3140622 9.40138258 11.64828869 10 14 C6.07511907 10.29939798 2.97784457 6.5093075 0 2 C0 1.34 0 0.68 0 0 Z " fill="#66E07B" transform="translate(268,283)"/>
<path d="M0 0 C1.32 0.33 2.64 0.66 4 1 C4 1.66 4 2.32 4 3 C4.61875 3.2475 5.2375 3.495 5.875 3.75 C8.37818306 5.22246063 8.83045281 6.41028837 10 9 C10.66 9.33 11.32 9.66 12 10 C9 10 9 10 6.73828125 8.06640625 C5.93777344 7.24011719 5.13726562 6.41382813 4.3125 5.5625 C3.50425781 4.73878906 2.69601562 3.91507813 1.86328125 3.06640625 C0 1 0 1 0 0 Z " fill="#5FD473" transform="translate(352,252)"/>
<path d="M0 0 C0.33 1.65 0.66 3.3 1 5 C0.34 4.67 -0.32 4.34 -1 4 C-1 3.34 -1 2.68 -1 2 C-2.98491642 2.26676204 -2.98491642 2.26676204 -5 3 C-5.33 3.99 -5.66 4.98 -6 6 C-5.67 6.66 -5.34 7.32 -5 8 C-5.99 7.67 -6.98 7.34 -8 7 C-8 5.02 -8 3.04 -8 1 C-5.10765685 0.17361624 -3.11257569 0 0 0 Z " fill="#6AE480" transform="translate(460,426)"/>
<path d="M0 0 C0.66 0.66 1.32 1.32 2 2 C1.43181818 7.56818182 1.43181818 7.56818182 0 9 C-1.85287502 9.07226502 -3.70833878 9.0838122 -5.5625 9.0625 C-6.57441406 9.05347656 -7.58632812 9.04445313 -8.62890625 9.03515625 C-9.41136719 9.02355469 -10.19382813 9.01195312 -11 9 C-11 8.67 -11 8.34 -11 8 C-7.7 8 -4.4 8 -1 8 C-0.67 5.36 -0.34 2.72 0 0 Z " fill="#66E97D" transform="translate(202,323)"/>
<path d="M0 0 C2 2 2 2 2.125 5.125 C2.08375 6.07375 2.0425 7.0225 2 8 C-0.64 8 -3.28 8 -6 8 C-6 7.34 -6 6.68 -6 6 C-4.02 6 -2.04 6 0 6 C0 4.02 0 2.04 0 0 Z " fill="#69DA7E" transform="translate(485,399)"/>
<path d="M0 0 C0.66 0 1.32 0 2 0 C2 0.66 2 1.32 2 2 C2.66 2 3.32 2 4 2 C8 8.75 8 8.75 8 11 C8.99 11.33 9.98 11.66 11 12 C9.68 12 8.36 12 7 12 C5.078125 9.62890625 5.078125 9.62890625 3.25 6.5625 C2.63640625 5.55316406 2.0228125 4.54382813 1.390625 3.50390625 C0 1 0 1 0 0 Z " fill="#67E37D" transform="translate(281,302)"/>
<path d="M0 0 C0 0.66 0 1.32 0 2 C-0.99 2.33 -1.98 2.66 -3 3 C-3.33 4.98 -3.66 6.96 -4 9 C-5.5625 7.75 -5.5625 7.75 -7 6 C-6.875 3.9375 -6.875 3.9375 -6 2 C-3 0 -3 0 0 0 Z " fill="#5ADF72" transform="translate(162,425)"/>
<path d="M0 0 C4.80172134 1.10808954 7.91161335 2.04686508 11 6 C11 6.66 11 7.32 11 8 C10.34 8 9.68 8 9 8 C9 7.01 9 6.02 9 5 C6.03 4.01 3.06 3.02 0 2 C0 1.34 0 0.68 0 0 Z " fill="#69E680" transform="translate(234,420)"/>
<path d="M0 0 C0.33 0 0.66 0 1 0 C1.66 3.96 2.32 7.92 3 12 C-1.76923077 6.46153846 -1.76923077 6.46153846 -2 3 C-1.34 2.01 -0.68 1.02 0 0 Z " fill="#64E27B" transform="translate(122,412)"/>
<path d="M0 0 C1.485 0.99 1.485 0.99 3 2 C4.95214625 2.31478577 4.95214625 2.31478577 7 2.25 C7.680625 2.25515625 8.36125 2.2603125 9.0625 2.265625 C11.32416007 2.09917603 11.32416007 2.09917603 14 0 C13.67 1.32 13.34 2.64 13 4 C11.20841511 4.02696365 9.41671527 4.04637917 7.625 4.0625 C6.62726563 4.07410156 5.62953125 4.08570313 4.6015625 4.09765625 C2 4 2 4 0 3 C0 2.01 0 1.02 0 0 Z " fill="#6CEB83" transform="translate(325,431)"/>
<path d="M0 0 C2 2 2 2 2.125 4.625 C2.08375 5.40875 2.0425 6.1925 2 7 C-0.31 7 -2.62 7 -5 7 C-4.67 6.01 -4.34 5.02 -4 4 C-2.02 4.495 -2.02 4.495 0 5 C0 3.35 0 1.7 0 0 Z " fill="#6ACE7C" transform="translate(243,410)"/>
<path d="M0 0 C0.36923077 5.41538462 0.36923077 5.41538462 -1.5 8.375 C-1.995 8.91125 -2.49 9.4475 -3 10 C-3 7.03 -3 4.06 -3 1 C-1 0 -1 0 0 0 Z " fill="#57D06D" transform="translate(246,427)"/>
<path d="M0 0 C3.69790046 1.23263349 3.9354846 2.20052451 5.6875 5.5625 C6.12449219 6.38878906 6.56148438 7.21507812 7.01171875 8.06640625 C7.33785156 8.70449219 7.66398437 9.34257812 8 10 C7.01 10.495 7.01 10.495 6 11 C1.71428571 3.57142857 1.71428571 3.57142857 0 0 Z " fill="#65DF7B" transform="translate(299,291)"/>
<path d="M0 0 C0.66 0 1.32 0 2 0 C2.103125 0.639375 2.20625 1.27875 2.3125 1.9375 C2.539375 2.618125 2.76625 3.29875 3 4 C3.99 4.33 4.98 4.66 6 5 C6.33 5.99 6.66 6.98 7 8 C3.76912579 7.44295272 1.97638863 6.66812465 0 4 C0 2.68 0 1.36 0 0 Z " fill="#68E37F" transform="translate(255,432)"/>
<path d="M0 0 C-1 3 -1 3 -4 5 C-6.1875 4.625 -6.1875 4.625 -8 4 C-2.25 0 -2.25 0 0 0 Z " fill="#63E97B" transform="translate(412,394)"/>
<path d="M0 0 C3.33557632 2.9905167 5.15083921 5.93184627 7 10 C2.95868733 8.65289578 2.09711566 6.61571666 0 3 C0 2.01 0 1.02 0 0 Z " fill="#67DC7B" transform="translate(291,278)"/>
<path d="M0 0 C2.66666667 2.66666667 5.33333333 5.33333333 8 8 C4.65902615 7.40339753 2.45699871 6.36924875 0 4 C0 2.68 0 1.36 0 0 Z " fill="#67E57D" transform="translate(407,425)"/>
<path d="M0 0 C4.55384615 -0.36923077 4.55384615 -0.36923077 6.8125 1.5 C7.204375 1.995 7.59625 2.49 8 3 C7.67 3.66 7.34 4.32 7 5 C6.01 4.34 5.02 3.68 4 3 C2.34450469 2.61500109 0.6777567 2.27206865 -1 2 C-0.67 1.34 -0.34 0.68 0 0 Z " fill="#60EC79" transform="translate(161,409)"/>
<path d="M0 0 C1.98 0.99 1.98 0.99 4 2 C4 2.66 4 3.32 4 4 C4.66 4 5.32 4 6 4 C5.67 5.32 5.34 6.64 5 8 C4.16382818 6.8562364 3.33113541 5.70992861 2.5 4.5625 C2.0359375 3.92441406 1.571875 3.28632813 1.09375 2.62890625 C0 1 0 1 0 0 Z " fill="#66E27D" transform="translate(261,273)"/>
<path d="M0 0 C0.804375 0.7425 0.804375 0.7425 1.625 1.5 C4.59358445 3.37489544 6.55312427 3.23501425 10 3 C10 3.66 10 4.32 10 5 C7.36 5 4.72 5 2 5 C1.34 3.35 0.68 1.7 0 0 Z " fill="#65E97C" transform="translate(192,430)"/>
<path d="M0 0 C-0.33 0.99 -0.66 1.98 -1 3 C-3.31 3 -5.62 3 -8 3 C-8 2.34 -8 1.68 -8 1 C-2.25 0 -2.25 0 0 0 Z " fill="#60DB76" transform="translate(166,420)"/>
<path d="M0 0 C-3.53411321 2.12046792 -6.94393835 2.53199289 -11 3 C-7.48550811 -0.37391222 -4.73940561 -0.27342725 0 0 Z " fill="#6BDE80" transform="translate(166,405)"/>
<path d="M0 0 C1.98 0.66 3.96 1.32 6 2 C6.33 3.65 6.66 5.3 7 7 C5.83040013 6.02433888 4.66438823 5.044375 3.5 4.0625 C2.8503125 3.51722656 2.200625 2.97195312 1.53125 2.41015625 C1.0259375 1.94480469 0.520625 1.47945312 0 1 C0 0.67 0 0.34 0 0 Z " fill="#6BEA81" transform="translate(339,239)"/>
<path d="M0 0 C0.66 0 1.32 0 2 0 C1.67 0.66 1.34 1.32 1 2 C0.67 1.34 0.34 0.68 0 0 Z " fill="#010101" transform="translate(112,516)"/>
<path d="M0 0 C2 1 2 1 2 1 Z " fill="#090908" transform="translate(96,508)"/>
<path d="" fill="#040B05" transform="translate(0,0)"/>
<path d="" fill="#060F07" transform="translate(0,0)"/>
<path d="" fill="#010101" transform="translate(0,0)"/>
<path d="" fill="#010101" transform="translate(0,0)"/>
<path d="" fill="#040404" transform="translate(0,0)"/>
<path d="" fill="#020202" transform="translate(0,0)"/>
<path d="" fill="#080808" transform="translate(0,0)"/>
<path d="" fill="#010101" transform="translate(0,0)"/>
<path d="" fill="#010101" transform="translate(0,0)"/>
<path d="" fill="#010101" transform="translate(0,0)"/>
<path d="" fill="#020201" transform="translate(0,0)"/>
<path d="" fill="#010101" transform="translate(0,0)"/>
<path d="" fill="#010101" transform="translate(0,0)"/>
<path d="" fill="#020202" transform="translate(0,0)"/>
<path d="" fill="#020202" transform="translate(0,0)"/>
<path d="" fill="#010101" transform="translate(0,0)"/>
<path d="" fill="#030303" transform="translate(0,0)"/>
<path d="" fill="#020202" transform="translate(0,0)"/>
<path d="" fill="#040403" transform="translate(0,0)"/>
<path d="" fill="#030303" transform="translate(0,0)"/>
<path d="" fill="#030303" transform="translate(0,0)"/>
<path d="" fill="#080E08" transform="translate(0,0)"/>
<path d="" fill="#020302" transform="translate(0,0)"/>
<path d="" fill="#080B08" transform="translate(0,0)"/>
<path d="" fill="#050B06" transform="translate(0,0)"/>
<path d="" fill="#050B06" transform="translate(0,0)"/>
<path d="" fill="#030504" transform="translate(0,0)"/>
<path d="" fill="#050D07" transform="translate(0,0)"/>
<path d="" fill="#101911" transform="translate(0,0)"/>
<path d="" fill="#071209" transform="translate(0,0)"/>
<path d="" fill="#071309" transform="translate(0,0)"/>
<path d="" fill="#071209" transform="translate(0,0)"/>
<path d="" fill="#0A130B" transform="translate(0,0)"/>
<path d="" fill="#061108" transform="translate(0,0)"/>
<path d="" fill="#020503" transform="translate(0,0)"/>
<path d="" fill="#0A140C" transform="translate(0,0)"/>
<path d="" fill="#070C08" transform="translate(0,0)"/>
<path d="" fill="#050E07" transform="translate(0,0)"/>
<path d="" fill="#050905" transform="translate(0,0)"/>
<path d="" fill="#061108" transform="translate(0,0)"/>
<path d="" fill="#060F07" transform="translate(0,0)"/>
<path d="" fill="#020503" transform="translate(0,0)"/>
<path d="" fill="#040C06" transform="translate(0,0)"/>
<path d="" fill="#061008" transform="translate(0,0)"/>
<path d="" fill="#050F07" transform="translate(0,0)"/>
<path d="" fill="#050F07" transform="translate(0,0)"/>
<path d="" fill="#060F07" transform="translate(0,0)"/>
<path d="" fill="#000000" transform="translate(0,0)"/>
<path d="" fill="#000000" transform="translate(0,0)"/>
<path d="" fill="#000000" transform="translate(0,0)"/>
<path d="" fill="#000000" transform="translate(0,0)"/>
<path d="" fill="#000000" transform="translate(0,0)"/>
<path d="" fill="#000000" transform="translate(0,0)"/>
<path d="" fill="#000000" transform="translate(0,0)"/>
<path d="" fill="#000000" transform="translate(0,0)"/>
<path d="" fill="#090A09" transform="translate(0,0)"/>
<path d="" fill="#000000" transform="translate(0,0)"/>
<path d="" fill="#0F0F0E" transform="translate(0,0)"/>
<path d="" fill="#000000" transform="translate(0,0)"/>
<path d="" fill="#000000" transform="translate(0,0)"/>
<path d="" fill="#0A0A09" transform="translate(0,0)"/>
<path d="" fill="#000000" transform="translate(0,0)"/>
<path d="" fill="#010101" transform="translate(0,0)"/>
<path d="" fill="#010101" transform="translate(0,0)"/>
<path d="" fill="#010101" transform="translate(0,0)"/>
<path d="" fill="#040404" transform="translate(0,0)"/>
<path d="" fill="#010101" transform="translate(0,0)"/>
<path d="" fill="#010101" transform="translate(0,0)"/>
<path d="" fill="#010101" transform="translate(0,0)"/>
<path d="" fill="#010101" transform="translate(0,0)"/>
<path d="" fill="#010101" transform="translate(0,0)"/>
<path d="" fill="#010101" transform="translate(0,0)"/>
<path d="" fill="#030303" transform="translate(0,0)"/>
<path d="" fill="#010101" transform="translate(0,0)"/>
<path d="" fill="#030303" transform="translate(0,0)"/>
<path d="" fill="#030403" transform="translate(0,0)"/>
<path d="" fill="#010101" transform="translate(0,0)"/>
<path d="" fill="#030303" transform="translate(0,0)"/>
<path d="" fill="#010101" transform="translate(0,0)"/>
<path d="" fill="#0F0F0E" transform="translate(0,0)"/>
<path d="" fill="#010101" transform="translate(0,0)"/>
<path d="" fill="#0D0D0C" transform="translate(0,0)"/>
<path d="" fill="#040404" transform="translate(0,0)"/>
<path d="" fill="#040404" transform="translate(0,0)"/>
<path d="" fill="#000000" transform="translate(0,0)"/>
<path d="" fill="#020202" transform="translate(0,0)"/>
<path d="" fill="#010101" transform="translate(0,0)"/>
<path d="" fill="#010101" transform="translate(0,0)"/>
<path d="" fill="#010101" transform="translate(0,0)"/>
<path d="" fill="#000000" transform="translate(0,0)"/>
<path d="" fill="#0A0A0A" transform="translate(0,0)"/>
<path d="" fill="#010101" transform="translate(0,0)"/>
<path d="" fill="#010101" transform="translate(0,0)"/>
<path d="" fill="#010101" transform="translate(0,0)"/>
<path d="" fill="#010101" transform="translate(0,0)"/>
<path d="" fill="#010101" transform="translate(0,0)"/>
<path d="" fill="#010101" transform="translate(0,0)"/>
<path d="" fill="#010101" transform="translate(0,0)"/>
<path d="" fill="#010101" transform="translate(0,0)"/>
<path d="" fill="#010101" transform="translate(0,0)"/>
</svg>
