<?xml version="1.0" encoding="UTF-8"?>
<svg version="1.1" xmlns="http://www.w3.org/2000/svg" width="1024" height="1024">
<path d="M0 0 C337.92 0 675.84 0 1024 0 C1024 337.92 1024 675.84 1024 1024 C686.08 1024 348.16 1024 0 1024 C0 686.08 0 348.16 0 0 Z " fill="#000000" transform="translate(0,0)"/>
<path d="M0 0 C337.92 0 675.84 0 1024 0 C1024 337.92 1024 675.84 1024 1024 C686.08 1024 348.16 1024 0 1024 C0 686.08 0 348.16 0 0 Z M280.72766113 124.9058075 C279.6615452 124.96570561 279.6615452 124.96570561 278.57389158 125.02681378 C258.09634411 126.21086512 238.49178989 129.59758726 219 136 C218.28021973 136.23444824 217.56043945 136.46889648 216.81884766 136.71044922 C193.95233869 144.31473066 174.1557345 157.22497528 157 174 C155.93072266 174.97646484 155.93072266 174.97646484 154.83984375 175.97265625 C119.26994921 209.20530926 108.40042279 262.15248254 106.68814278 308.63349152 C106.60281545 311.3162207 106.52118446 313.99876994 106.44558716 316.6817627 C106.42461563 317.40580797 106.40364409 318.12985325 106.38203706 318.87583929 C105.91058832 335.46030872 105.85593405 352.03962229 105.86927533 368.62967086 C105.87159175 372.91742709 105.86801966 377.20517973 105.86529541 381.49293518 C105.86090378 389.84035248 105.86178427 398.18776068 105.86470805 406.5351783 C105.86698848 413.3337506 105.86726333 420.13232038 105.86618423 426.93089294 C105.866031 427.90727367 105.86587777 428.8836544 105.86571989 429.88962242 C105.86540009 431.8745844 105.86507588 433.85954637 105.8647473 435.84450835 C105.86191187 454.35438511 105.86514891 472.86425687 105.87054767 491.37413281 C105.87501393 507.17471734 105.87423745 522.97529451 105.86962891 538.77587891 C105.86424867 557.23025969 105.86218638 575.68463612 105.86524117 594.13901758 C105.86555964 596.11571407 105.86587401 598.09241056 105.86618423 600.06910706 C105.86633851 601.04108063 105.86649279 602.0130542 105.86665174 603.01448151 C105.86750659 609.7861396 105.86607653 616.55779487 105.86370468 623.32945251 C105.86086788 631.60864429 105.8617252 639.88782662 105.86698543 648.16701734 C105.86957103 652.37187428 105.87071771 656.5767156 105.86733627 660.78157234 C105.85515172 677.37390374 105.97165604 693.9508266 106.45339966 710.5369873 C106.48332893 711.59319758 106.48332893 711.59319758 106.51386283 712.67074543 C107.97693318 763.01696495 119.11535366 811.85002762 155 849 C156.29357422 850.38832031 156.29357422 850.38832031 157.61328125 851.8046875 C181.9135086 877.22092529 215.71474418 890.33856482 249.8125 896.1875 C250.71137939 896.34250977 251.61025879 896.49751953 252.53637695 896.65722656 C269.16299315 899.32306075 285.8050407 900.30005029 302.62153625 900.26069641 C304.49776475 900.26372711 306.37399201 900.26762113 308.25021714 900.27228898 C313.34013062 900.28246013 318.42997282 900.28041531 323.51989186 900.27610838 C329.03553129 900.273621 334.55115443 900.28268025 340.06678772 900.29014587 C350.84907155 900.30284111 361.63133041 900.30469292 372.41362045 900.30234561 C381.18954461 900.30055587 389.96546124 900.30232611 398.74138451 900.30657005 C399.99486481 900.30716524 401.24834511 900.30776043 402.53980967 900.30837366 C405.08710606 900.30958554 407.63440244 900.31079967 410.18169882 900.31201603 C427.26507322 900.31979337 444.34844514 900.32372951 461.43182087 900.31969929 C462.4317073 900.31946472 462.4317073 900.31946472 463.45179345 900.31922542 C466.82939777 900.31841979 470.20700208 900.31757401 473.58460639 900.31671212 C474.25525942 900.31654103 474.92591246 900.31636994 475.61688832 900.31619367 C476.97311023 900.31584701 478.32933214 900.31549848 479.68555406 900.31514808 C500.76214701 900.30979755 521.83869806 900.31770747 542.9152832 900.33618164 C566.66493156 900.35697507 590.4145576 900.36757905 614.16421765 900.36360615 C626.71254941 900.36170275 639.26084304 900.36409669 651.80916786 900.37832069 C662.49651807 900.39031369 673.18380669 900.39155189 683.87115786 900.37953053 C689.30909867 900.3736958 694.7469273 900.37238956 700.18486023 900.38453293 C746.21225861 900.4801284 793.86499504 899.35876511 835 876 C836.11246094 875.37480469 837.22492187 874.74960937 838.37109375 874.10546875 C874.42554735 852.85368398 898.20256209 818.07768832 909 778 C909.3400708 776.75041504 909.3400708 776.75041504 909.68701172 775.47558594 C915.40534188 753.93286888 917.06494133 732.08819422 917.57003784 709.89790344 C917.59038499 709.05746635 917.61073213 708.21702926 917.63169585 707.35112438 C918.058296 689.59410332 918.14475146 671.84228348 918.13072467 654.08092773 C918.12840007 649.69457034 918.13198395 645.30821637 918.13470459 640.92185974 C918.13908658 632.39399427 918.13822065 623.86613772 918.13529195 615.33827194 C918.13300949 608.3981601 918.13273751 601.45805072 918.13381577 594.51793861 C918.133969 593.52049802 918.13412223 592.52305743 918.13428011 591.49539137 C918.13459991 589.46765222 918.13492412 587.43991306 918.1352527 585.4121739 C918.13808477 566.52720271 918.13485547 547.64223641 918.12945233 528.75726602 C918.12497735 512.61706488 918.12577037 496.47687093 918.13037109 480.33666992 C918.13574176 461.48716324 918.13781967 442.63766081 918.13475883 423.78815347 C918.13444035 421.77292113 918.13412598 419.75768878 918.13381577 417.74245644 C918.13366149 416.75148333 918.13350721 415.76051023 918.13334826 414.73950764 C918.13249124 407.81575477 918.13392808 400.89200463 918.13629532 393.96825218 C918.13912096 385.52023706 918.13829705 377.0722312 918.13301457 368.62421712 C918.13041585 364.32917972 918.12930625 360.0341577 918.13266373 355.73912048 C918.16875318 305.34123711 918.17405728 253.2928779 893 208 C892.43667969 206.94941406 891.87335937 205.89882812 891.29296875 204.81640625 C872.01470031 170.0974638 838.71753699 146.07512166 801.08984375 134.6796875 C786.50492632 130.53265074 771.6699072 128.01966479 756.625 126.25 C755.66037842 126.13422607 754.69575684 126.01845215 753.7019043 125.89916992 C728.69754675 123.25666167 703.31775091 123.84812341 678.20941114 123.85461628 C673.19485171 123.85482338 668.18029774 123.84927265 663.16574097 123.84455872 C653.3779015 123.83631801 643.59006806 123.8335069 633.80222541 123.83294634 C625.83263204 123.83246811 617.86304063 123.83039822 609.89344788 123.82724571 C587.20985327 123.81845779 564.52626336 123.81382351 541.84266704 123.81457619 C540.62453809 123.81461614 539.40640914 123.8146561 538.15136719 123.81469727 C536.93172085 123.81473815 535.71207451 123.81477903 534.45546919 123.81482115 C514.70618439 123.81522728 494.95691868 123.80566098 475.2076394 123.7915589 C454.84266079 123.77713392 434.47769145 123.77029204 414.11270761 123.77115268 C402.71406146 123.7714825 391.31543533 123.76883058 379.91679382 123.75797462 C370.21087326 123.74878863 360.50498181 123.74675991 350.79905874 123.75348405 C345.8650155 123.75670872 340.93102785 123.75695646 335.9969902 123.7481308 C317.54813211 123.71728512 299.1507785 123.85299359 280.72766113 124.9058075 Z " fill="#F9F8FB" transform="translate(0,0)"/>
<path d="M0 0 C28 0 28 0 39 1 C39.33 32.02 39.66 63.04 40 95 C44.62 88.73 49.24 82.46 54 76 C56.67685039 72.46959235 59.35838353 68.94652192 62.0625 65.4375 C67.54080626 58.28845287 72.89031251 51.0643071 78.13476562 43.74243164 C83.91008303 35.69455177 89.76596182 27.68214624 95.89794922 19.90136719 C97.57976638 17.58002977 98.96666503 15.34015661 100.37158203 12.85644531 C106.79304725 2.13374207 106.79304725 2.13374207 112.34402466 0.17132568 C118.80537428 -0.97458341 125.24313679 -0.46446296 131.75 0 C133.71845867 0.08039818 135.68723505 0.15337766 137.65625 0.21875 C142.4454469 0.39375988 147.21916979 0.66879407 152 1 C150.56098773 4.11830159 148.82112821 6.70431915 146.7265625 9.421875 C146.07300781 10.27394531 145.41945313 11.12601562 144.74609375 12.00390625 C144.04613281 12.91011719 143.34617187 13.81632812 142.625 14.75 C141.15835863 16.66107814 139.69221654 18.57253955 138.2265625 20.484375 C137.5037207 21.42603516 136.78087891 22.36769531 136.03613281 23.33789062 C133.33211602 26.87321426 130.66186595 30.43289537 128 34 C122.6869208 41.10969319 117.3069468 48.1674024 111.921875 55.22265625 C107.45157734 61.08352361 102.99617754 66.95479224 98.60888672 72.87817383 C95.68886933 76.80628058 92.68974631 80.65765515 89.6328125 84.48046875 C88.88644531 85.42599609 88.14007813 86.37152344 87.37109375 87.34570312 C85.89629171 89.21164832 84.40706882 91.06630329 82.90234375 92.90820312 C81.90267578 94.18147461 81.90267578 94.18147461 80.8828125 95.48046875 C80.27840332 96.23223389 79.67399414 96.98399902 79.05126953 97.75854492 C77.71009635 99.99802248 77.71009635 99.99802248 78.66064453 102.54980469 C79.85500181 104.73474265 81.06602818 106.72415643 82.546875 108.72265625 C83.05452393 109.41512451 83.56217285 110.10759277 84.08520508 110.82104492 C84.6345874 111.5607251 85.18396973 112.30040527 85.75 113.0625 C86.93746399 114.6839694 88.12361733 116.30639929 89.30859375 117.9296875 C89.9207373 118.76725586 90.53288086 119.60482422 91.16357422 120.46777344 C94.09372028 124.50811841 96.95627871 128.59469906 99.8125 132.6875 C100.38629395 133.50911621 100.96008789 134.33073242 101.55126953 135.17724609 C106.7674822 142.65463165 111.96697936 150.14367492 117.17016602 157.63012695 C122.59309249 165.4275191 128.05786706 173.19435074 133.546875 180.9453125 C135.07588319 183.10729719 136.60089153 185.27205875 138.125 187.4375 C139.1665753 188.91673101 140.2082408 190.3958985 141.25 191.875 C141.74693359 192.58060059 142.24386719 193.28620117 142.75585938 194.01318359 C146.33527521 199.08481918 149.97615072 204.10602454 153.671875 209.09375 C155 211 155 211 155 212 C148.311553 212.27995493 141.62462428 212.47194712 134.93164062 212.60424805 C132.65762899 212.6594158 130.38400496 212.73437501 128.11132812 212.82983398 C109.21429629 213.60342088 109.21429629 213.60342088 103.80883789 209.68920898 C101.73926961 206.8546187 100.37230662 204.21929857 99 201 C97.84442141 199.2081727 96.65999269 197.43435963 95.4375 195.6875 C94.44556641 194.18703125 94.44556641 194.18703125 93.43359375 192.65625 C84.33439924 178.93518039 74.92085776 165.42229901 65.5012207 151.92041016 C61.58199245 146.29580238 57.72062604 140.64409911 53.9453125 134.921875 C51.35276885 131.02785362 48.71049983 127.16895452 46.0625 123.3125 C45.57676514 122.60359619 45.09103027 121.89469238 44.59057617 121.16430664 C42.47858949 117.93515858 42.47858949 117.93515858 40 115 C39.67 147.01 39.34 179.02 39 212 C26.13 212 13.26 212 0 212 C0 142.04 0 72.08 0 0 Z " fill="#4DF76B" transform="translate(387,326)"/>
<path d="M0 0 C1.05684494 -0.01555183 1.05684494 -0.01555183 2.13504028 -0.03141785 C4.45984458 -0.05848189 6.78276131 -0.04882893 9.10766602 -0.03637695 C10.72665431 -0.04228642 12.34563824 -0.04953338 13.96461487 -0.05805969 C17.35668717 -0.06993948 20.74810333 -0.06323456 24.14013672 -0.04394531 C28.48301148 -0.02106988 32.82392823 -0.04782066 37.16660976 -0.08900738 C40.50992585 -0.11460958 43.85277502 -0.11199899 47.19615364 -0.10111427 C48.79691405 -0.09962914 50.39771052 -0.10729978 51.99838066 -0.12436485 C54.23970304 -0.14437939 56.4775851 -0.12592046 58.71875 -0.09765625 C60.62925392 -0.09502022 60.62925392 -0.09502022 62.57835388 -0.09233093 C67.24513039 0.96102202 68.27970276 2.75037995 70.92407227 6.6628418 C71.97685937 10.49304752 71.2520474 13.90849898 69.67407227 17.5378418 C67.92407227 19.6628418 67.92407227 19.6628418 63.92407227 21.6628418 C47.75407227 21.6628418 31.58407227 21.6628418 14.92407227 21.6628418 C14.92407227 96.5728418 14.92407227 171.4828418 14.92407227 248.6628418 C30.76407227 248.6628418 46.60407227 248.6628418 62.92407227 248.6628418 C68.92407227 253.6628418 68.92407227 253.6628418 69.92407227 255.6628418 C70.30341424 260.68912296 69.94855528 263.59142236 66.92407227 267.6628418 C64.09470164 270.49221242 62.22358213 269.93526734 58.25878906 269.96923828 C57.57402496 269.9775618 56.88926086 269.98588531 56.18374634 269.99446106 C53.91353716 270.01861171 51.64361515 270.02734004 49.37329102 270.03393555 C47.79628919 270.04289955 46.21928825 270.05202135 44.64228821 270.06129456 C41.33263074 270.0778019 38.02307461 270.08548755 34.71337891 270.08837891 C30.47612968 270.09375819 26.2398359 270.13141057 22.00285625 270.17712307 C18.74370366 270.20689859 15.48478071 270.21410259 12.22550392 270.21510506 C10.66379238 270.21930808 9.1020802 270.23174587 7.54050255 270.2526226 C5.35213951 270.27954412 3.16598429 270.27471161 0.97753906 270.26220703 C-0.26663284 270.26727768 -1.51080475 270.27234833 -2.79267883 270.27757263 C-7.18978489 269.45429156 -8.39266353 268.23997302 -11.07592773 264.6628418 C-11.81285615 261.19807005 -11.74634491 257.79396138 -11.70411682 254.26257324 C-11.71121121 253.20418889 -11.7183056 252.14580453 -11.72561496 251.05534792 C-11.74324055 247.50292105 -11.72506574 243.95158165 -11.70703125 240.39916992 C-11.71216828 237.85484823 -11.71944792 235.3105301 -11.72871399 232.76622009 C-11.74533622 226.56941317 -11.7385752 220.37301055 -11.72062577 214.17621887 C-11.70660142 209.14012607 -11.70270659 204.10411887 -11.70606804 199.06800842 C-11.70654548 198.35131093 -11.70702292 197.63461343 -11.70751483 196.89619783 C-11.70854116 195.44025113 -11.70959652 193.98430446 -11.7106806 192.5283578 C-11.71924868 179.6533636 -11.70256924 166.77852162 -11.67285156 153.90356445 C-11.64401385 141.4096843 -11.63693044 128.91602345 -11.65234375 116.42211914 C-11.66910387 102.81786828 -11.67314208 89.21372155 -11.65563339 75.60946798 C-11.653789 74.15887039 -11.65195427 72.70827279 -11.65012932 71.25767517 C-11.64921723 70.54394911 -11.64830514 69.83022305 -11.64736541 69.09486893 C-11.64175882 64.06469803 -11.64506832 59.03457794 -11.65167427 54.00440979 C-11.66021205 47.2344358 -11.64725393 40.46482547 -11.61982536 33.69488716 C-11.61292658 31.20720421 -11.61285944 28.71949177 -11.62004089 26.23180962 C-11.62870076 22.8418873 -11.61283687 19.4529501 -11.59059143 16.06311035 C-11.5988322 15.07332955 -11.60707296 14.08354875 -11.61556345 13.06377459 C-11.56348629 8.77854779 -11.45452778 6.30588734 -9.24493217 2.55292797 C-6.16651424 -0.12962771 -4.04800098 0.02224291 0 0 Z " fill="#4DF86B" transform="translate(278.075927734375,298.337158203125)"/>
<path d="M0 0 C9.37317301 6.49855163 14.4413787 14.69424476 17.0625 25.75 C18.32848687 38.50703873 17.82897386 51.23959911 10.3125 62.0625 C3.72849538 69.99960832 -3.74237656 75.54675856 -13.9375 77.75 C-26.07959177 78.73604569 -38.30203137 79.37307602 -48.9375 72.75 C-50.06478516 72.08097656 -50.06478516 72.08097656 -51.21484375 71.3984375 C-59.00994451 66.20170366 -64.15691976 57.60899571 -66.4921875 48.61328125 C-68.53073511 35.50577779 -67.94897644 21.5919716 -60.1875 10.4375 C-45.36770502 -7.33150791 -20.23537049 -12.16856739 0 0 Z " fill="#4DF66B" transform="translate(743.9375,675.25)"/>
<path d="M0 0 C1.10794922 -0.04253906 1.10794922 -0.04253906 2.23828125 -0.0859375 C9.70368184 1.31903422 15.02281646 8.51706995 20.0625 13.6875 C26.54141056 20.35461215 26.54141056 20.35461215 33.4140625 26.60546875 C40.53554237 32.71073745 46.9688446 39.60468049 53.56054688 46.26855469 C62.59988956 55.43801561 62.59988956 55.43801561 72.14892578 64.06787109 C74.06039906 65.69180444 75.85602292 67.41019832 77.625 69.1875 C78.19089844 69.75082031 78.75679687 70.31414062 79.33984375 70.89453125 C81.68422177 73.46994943 81.97685768 75.5981266 82.1875 79 C82.2596875 79.81726563 82.331875 80.63453125 82.40625 81.4765625 C80.6684632 88.48437667 72.91873818 94.29291053 67.89770508 99.31005859 C67.25937241 99.95174988 66.62103973 100.59344116 65.96336365 101.25457764 C63.88052541 103.34681369 61.79403289 105.43535498 59.70703125 107.5234375 C58.24680972 108.98687642 56.7866618 110.45038877 55.32658386 111.91397095 C52.27979596 114.96671993 49.2309754 118.01742213 46.1809082 121.06689453 C42.27185205 124.97584855 38.36975114 128.89166805 34.4693346 132.80924034 C31.46248695 135.82719153 28.45112054 138.840602 25.43845177 141.85274124 C23.99713231 143.29524074 22.55743411 144.73936205 21.1193943 146.18513107 C19.11400744 148.20029615 17.10240738 150.20904963 15.08911133 152.21630859 C14.497341 152.81369843 13.90557068 153.41108826 13.29586792 154.02658081 C9.09895418 158.1915291 6.69286479 160.18093244 0.8125 160.75 C-3.53784941 160.62062158 -5.9880425 159.24612239 -9.3125 156.375 C-12.06624623 153.11398473 -13.20737343 151.11088601 -13.8125 146.875 C-12.87712324 140.32736265 -8.27654308 136.04762429 -3.71777344 131.55322266 C-3.17098938 131.00614655 -2.62420532 130.45907043 -2.06085205 129.89541626 C-0.26923045 128.10517757 1.5293491 126.32211012 3.328125 124.5390625 C4.57837899 123.29254233 5.82818942 122.04557713 7.07757568 120.79818726 C10.35451728 117.528853 13.63742204 114.26557176 16.92163086 111.00354004 C20.27691692 107.66877498 23.62649284 104.32828516 26.9765625 100.98828125 C33.54131799 94.44492451 40.11239126 87.90795202 46.6875 81.375 C45.12138545 78.07684188 43.4361877 75.87779528 40.8359375 73.29296875 C40.06636719 72.52533203 39.29679688 71.75769531 38.50390625 70.96679688 C37.69824219 70.17337891 36.89257812 69.37996094 36.0625 68.5625 C35.28003906 67.78068359 34.49757813 66.99886719 33.69140625 66.19335938 C30.16563909 62.69390391 26.60840023 59.28975407 22.8515625 56.0390625 C18.88884804 52.59119208 15.13074558 48.97941893 11.4140625 45.26953125 C10.43933487 44.29979622 10.43933487 44.29979622 9.44491577 43.31047058 C8.08746651 41.95803877 6.73132669 40.60429145 5.37646484 39.24926758 C3.30194577 37.176957 1.21952447 35.11280595 -0.86328125 33.04882812 C-2.1879883 31.72705171 -3.51222417 30.40480284 -4.8359375 29.08203125 C-5.45673187 28.46842239 -6.07752625 27.85481354 -6.71713257 27.22261047 C-7.29178253 26.64488388 -7.8664325 26.06715729 -8.45849609 25.47192383 C-8.96287201 24.96897293 -9.46724792 24.46602203 -9.98690796 23.9478302 C-13.20263839 20.13232906 -13.85798792 16.5684709 -13.76953125 11.6953125 C-12.96554205 7.61352115 -10.36479813 5.05597233 -7.3125 2.375 C-4.27839663 0.35226442 -3.45879 0.05973731 0 0 Z " fill="#4DF76B" transform="translate(573.3125,370.625)"/>
<path d="M0 0 C4.95 0 9.9 0 15 0 C15.33 10.23 15.66 20.46 16 31 C18.31 29.02 20.62 27.04 23 25 C27.3971675 22.45427145 32.04843887 22.25569888 37 23 C44.34634127 25.3787099 49.35518725 29.17950881 53 36 C58.15917751 47.27957061 57.06480135 60.54146517 53 72 C50.03144802 77.72506453 45.21665265 82.92778245 39 85 C25.43674636 85.94164111 25.43674636 85.94164111 20 82 C17.125 79.3125 17.125 79.3125 15 77 C14.67 79.31 14.34 81.62 14 84 C9.38 84 4.76 84 0 84 C0 56.28 0 28.56 0 0 Z " fill="#4BF86A" transform="translate(539,668)"/>
<path d="M0 0 C3.78805795 4.03163595 6.63848203 9.10602485 6.88671875 14.68359375 C6.84546875 15.40675781 6.80421875 16.12992188 6.76171875 16.875 C1.63252689 18.97928384 -2.79936475 19.09255666 -8.23828125 18.875 C-8.46515625 17.8025 -8.69203125 16.73 -8.92578125 15.625 C-10.39039653 11.44038491 -11.52478734 10.17382956 -15.23828125 7.875 C-21.00610782 6.05740759 -27.13398224 6.0483111 -32.73828125 8.25 C-35.28212887 9.78051148 -35.28212887 9.78051148 -37.23828125 11.875 C-37.9078695 15.97847086 -37.9078695 15.97847086 -37.23828125 19.875 C-31.42274786 25.05647183 -23.61923793 26.21032369 -16.26757812 28.14257812 C-5.97582548 30.96586495 2.23933642 34.29523243 7.87109375 43.734375 C10.41800685 49.85590299 9.19570646 57.76999248 6.8515625 63.80859375 C3.14842051 70.82996333 -2.24076491 73.72682126 -9.58984375 76.1484375 C-21.67085222 79.46269646 -33.54734951 78.54516682 -44.6953125 72.5546875 C-49.49626847 69.29466916 -52.60974489 65.49136257 -54.23828125 59.875 C-54.5215943 57.10797586 -54.43772179 54.66716757 -54.23828125 51.875 C-49.61828125 51.545 -44.99828125 51.215 -40.23828125 50.875 C-39.72265625 52.298125 -39.20703125 53.72125 -38.67578125 55.1875 C-37.11922125 58.6130092 -36.42995247 59.74322603 -33.23828125 61.9375 C-26.95360725 63.92854974 -19.2613858 63.9934451 -13.11328125 61.5625 C-10.02823073 60.03310662 -10.02823073 60.03310662 -8.23828125 56.875 C-7.57151247 53.41750051 -7.57151247 53.41750051 -8.23828125 49.875 C-14.21967549 44.56509216 -22.29425369 43.50729551 -29.85351562 41.60742188 C-38.46151047 39.34542924 -47.27758942 36.81210692 -52.23828125 28.875 C-55.31913692 22.31830716 -55.66811617 14.85461659 -53.2109375 8.015625 C-49.11483624 0.52690801 -43.48895634 -3.51267496 -35.61328125 -6.5 C-23.35167679 -8.87875127 -9.95625574 -8.07809797 0 0 Z " fill="#4DF66B" transform="translate(825.23828125,676.125)"/>
<path d="M0 0 C5.28 0 10.56 0 16 0 C16 10.23 16 20.46 16 31 C18.31 29.02 20.62 27.04 23 25 C27.14726391 22.66051779 31.32845759 22.44726025 36 23 C41.85946201 24.71742852 45.97189966 27.70316813 49 33 C50.88545686 39.18890749 51.26927706 44.74385164 51.1953125 51.1875 C51.1924826 52.13061035 51.18965271 53.0737207 51.18673706 54.04541016 C51.17562442 57.03040756 51.15053672 60.01509469 51.125 63 C51.11495866 65.03515189 51.10583484 67.07030852 51.09765625 69.10546875 C51.07571435 74.07043037 51.04124673 79.03516275 51 84 C46.05 84 41.1 84 36 84 C35.970271 82.27499268 35.970271 82.27499268 35.93994141 80.51513672 C35.86363954 76.23220615 35.77496054 71.94960444 35.68261719 67.66699219 C35.64442878 65.81647249 35.60955849 63.96588113 35.578125 62.11523438 C35.53225359 59.44895893 35.47429641 56.78317252 35.4140625 54.1171875 C35.40251129 53.29507782 35.39096008 52.47296814 35.37905884 51.62594604 C35.24324783 46.29214576 34.94548523 41.31961701 31.375 37.0625 C28.49021 35.77193605 26.11638625 35.89533879 23 36.1875 C19.84888765 37.46763939 18.8056189 39.11759995 17 42 C16.39633658 45.22243046 16.3951272 48.40388442 16.390625 51.67578125 C16.37408875 52.6009404 16.35755249 53.52609955 16.34051514 54.47929382 C16.29207004 57.42376365 16.27067189 60.36771713 16.25 63.3125 C16.22183741 65.31317697 16.19190958 67.31382992 16.16015625 69.31445312 C16.0863119 74.20959291 16.03671586 79.10444663 16 84 C11.05 84 6.1 84 1 84 C0.28974453 55.99402217 -0.14710384 28.01510941 0 0 Z " fill="#4BF66A" transform="translate(604,668)"/>
<path d="M0 0 C4.93719661 3.97122336 8.00036281 9.00108844 10 15 C11.34751003 36.93569607 11.34751003 36.93569607 4.1640625 45.08203125 C-2.97678916 51.79880935 -10.52064599 52.72503655 -20.00390625 52.4375 C-26.57077381 51.94200422 -31.3293765 49.02586083 -35.64453125 44.13671875 C-40.96895039 36.47998921 -42.03858762 26.97151939 -40.6875 17.90234375 C-38.91194225 9.67453595 -34.95363304 3.69263579 -28 -1 C-18.78159462 -6.09791233 -9.03066984 -4.92581991 0 0 Z " fill="#000200" transform="translate(734,687)"/>
<path d="M0 0 C4.13804836 3.24450752 6.66190087 6.54514809 7.98828125 11.7109375 C8.49511456 16.54014152 8.59186482 21.35817041 8.67578125 26.2109375 C8.70994141 27.48453125 8.74410156 28.758125 8.77929688 30.0703125 C8.99954601 38.95219581 9.01484766 47.82713138 8.98828125 56.7109375 C4.36828125 56.7109375 -0.25171875 56.7109375 -5.01171875 56.7109375 C-5.50671875 53.7409375 -5.50671875 53.7409375 -6.01171875 50.7109375 C-6.43582031 51.12085938 -6.85992187 51.53078125 -7.296875 51.953125 C-11.9995872 56.27341885 -15.84592065 58.66450344 -22.46484375 58.73828125 C-29.41793068 58.33233755 -33.53094625 56.39285372 -38.32421875 51.2109375 C-41.38114392 46.68215948 -41.57548337 42.10846174 -41.01171875 36.7109375 C-39.27710073 31.79618644 -36.55636121 28.28562406 -32.01171875 25.7109375 C-28.4003597 24.41579236 -24.75981457 23.51570883 -21.01171875 22.7109375 C-19.46484375 22.370625 -19.46484375 22.370625 -17.88671875 22.0234375 C-13.9225527 21.59254989 -9.99474865 21.6312769 -6.01171875 21.7109375 C-6.69175117 17.05220794 -7.42712825 13.5293642 -10.19921875 9.6484375 C-13.83679736 7.14255001 -15.67809318 6.93707579 -20.01171875 7.7109375 C-23.50401581 10.50477515 -24.99753878 12.68257757 -27.01171875 16.7109375 C-31.30171875 16.3809375 -35.59171875 16.0509375 -40.01171875 15.7109375 C-39.57353991 10.233702 -38.64801936 6.87937966 -35.01171875 2.7109375 C-24.20464988 -4.98527794 -11.80548929 -7.56468246 0 0 Z " fill="#4DF76B" transform="translate(295.01171875,695.2890625)"/>
<path d="M0 0 C4.95 0 9.9 0 15 0 C15.01458252 1.15000488 15.02916504 2.30000977 15.04418945 3.48486328 C15.10233762 7.76788805 15.17956924 12.05039616 15.26245117 16.33300781 C15.29562296 18.18350819 15.32367887 20.03410786 15.34643555 21.88476562 C15.3801245 24.55121003 15.4324466 27.2167509 15.48828125 29.8828125 C15.49467117 30.70492218 15.5010611 31.52703186 15.50764465 32.37405396 C15.63676415 37.46440379 16.181683 42.181683 20 46 C23.99268709 46.42113535 27.72757753 46.55464569 31.4375 44.9375 C35.39402132 40.03141357 35.32142722 33.46669699 35.4140625 27.44140625 C35.43342865 26.65225327 35.4527948 25.86310028 35.4727478 25.05003357 C35.53204824 22.55429553 35.5787285 20.05851011 35.625 17.5625 C35.66322551 15.86000704 35.70227984 14.15753248 35.7421875 12.45507812 C35.83770828 8.30353659 35.92191969 4.15190467 36 0 C40.95 0 45.9 0 51 0 C51 19.47 51 38.94 51 59 C46.05 59 41.1 59 36 59 C35.505 56.03 35.505 56.03 35 53 C34.27683594 53.63228516 34.27683594 53.63228516 33.5390625 54.27734375 C32.90742188 54.82519531 32.27578125 55.37304688 31.625 55.9375 C30.99851562 56.48277344 30.37203125 57.02804687 29.7265625 57.58984375 C24.82109029 61.59634933 17.99875876 60.48509325 12 60 C7.02559067 57.77009237 4.53214071 54.79298062 2 50 C0.06532268 43.74108184 -0.27430281 37.65956561 -0.1953125 31.15234375 C-0.1924826 30.25504044 -0.18965271 29.35773712 -0.18673706 28.4332428 C-0.17564979 25.60118586 -0.15056747 22.76945939 -0.125 19.9375 C-0.11495537 18.00325981 -0.10583213 16.06901461 -0.09765625 14.13476562 C-0.07574814 9.4230521 -0.04129901 4.71158184 0 0 Z " fill="#4BF56A" transform="translate(314,693)"/>
<path d="M0 0 C4.95 0 9.9 0 15 0 C15.04898437 2.42214844 15.09796875 4.84429688 15.1484375 7.33984375 C15.20260969 9.7130292 15.25985297 12.08612236 15.31738281 14.45922852 C15.355418 16.09522486 15.39031288 17.73129761 15.421875 19.36743164 C14.80005053 33.6732535 14.80005053 33.6732535 20 46 C23.38346639 46.55998137 26.61495183 46.54138896 30 46 C33.11674675 43.26334431 34.18855376 40.96868372 35 37 C35.15110957 34.16611169 35.25631534 31.35139452 35.31640625 28.515625 C35.33718735 27.70003113 35.35796844 26.88443726 35.37937927 26.04412842 C35.44461297 23.44616895 35.50363768 20.84811087 35.5625 18.25 C35.60571014 16.485667 35.64932522 14.72134387 35.69335938 12.95703125 C35.80026745 8.63812116 35.90160827 4.31911216 36 0 C40.95 0 45.9 0 51 0 C51 19.47 51 38.94 51 59 C46.05 59 41.1 59 36 59 C35.505 56.03 35.505 56.03 35 53 C34.27683594 53.63228516 34.27683594 53.63228516 33.5390625 54.27734375 C32.90742188 54.82519531 32.27578125 55.37304688 31.625 55.9375 C30.99851562 56.48277344 30.37203125 57.02804687 29.7265625 57.58984375 C24.80828675 61.60680652 18.00537566 60.57034294 12 60 C7.95151372 58.61445795 5.87433304 56.492303 3.734375 52.83984375 C0.36338987 45.72991384 -0.14364472 39.30398328 -0.09765625 31.54296875 C-0.0962413 30.64000565 -0.09482635 29.73704254 -0.09336853 28.80671692 C-0.08778823 25.93361037 -0.07523934 23.06058284 -0.0625 20.1875 C-0.05748245 18.23502717 -0.05291999 16.28255311 -0.04882812 14.33007812 C-0.03782525 9.55335515 -0.02057418 4.77669096 0 0 Z " fill="#4CF66B" transform="translate(477,693)"/>
<path d="M0 0 C0.80049271 -0.00671722 1.60098541 -0.01343445 2.42573547 -0.02035522 C5.06985699 -0.03934024 7.71372474 -0.04325966 10.35791016 -0.04541016 C12.19870101 -0.05183775 14.03949084 -0.05856609 15.88027954 -0.06558228 C19.73873259 -0.0775563 23.59709609 -0.08126297 27.45556641 -0.08007812 C32.39423636 -0.07987493 37.33233088 -0.10717664 42.27086449 -0.14162254 C46.07305527 -0.16388507 49.87510743 -0.16791586 53.67735672 -0.16685867 C55.49778857 -0.16921562 57.31822419 -0.17804445 59.13859177 -0.19352341 C61.6878538 -0.2131705 64.23587322 -0.2073509 66.78515625 -0.1953125 C67.53341171 -0.20655151 68.28166718 -0.21779053 69.05259705 -0.22937012 C74.16613231 -0.16816185 77.08846071 1.0565221 81.02197266 4.29052734 C82.15085173 6.5482855 82.28587878 8.0280966 82.39697266 10.54052734 C82.44595703 11.28818359 82.49494141 12.03583984 82.54541016 12.80615234 C81.77339087 16.47036329 79.88896689 18.97658651 77.02197266 21.29052734 C73.96295038 21.89328753 71.6926278 22.10483621 68.63916016 22.05102539 C67.39190155 22.06438683 67.39190155 22.06438683 66.1194458 22.07801819 C63.37781706 22.0992846 60.63854323 22.0770047 57.89697266 22.05224609 C55.98795329 22.05374876 54.07893455 22.05717938 52.16992188 22.06245422 C48.17172511 22.06678467 44.17433518 22.04995543 40.17626953 22.01782227 C35.05455525 21.97804097 29.93435382 21.98734133 24.81259155 22.0120573 C20.87137478 22.02624821 16.93051067 22.01614749 12.98931885 21.99854469 C11.10110313 21.99269964 9.21285127 21.99399023 7.324646 22.0025692 C4.68387826 22.0105718 2.04531811 21.98629345 -0.59521484 21.95336914 C-1.37354675 21.96191925 -2.15187866 21.97046936 -2.95379639 21.97927856 C-6.9799027 21.89275019 -8.77692934 21.45278109 -11.95117188 18.89167786 C-14.89328671 15.11593576 -15.27674235 11.99315499 -14.97802734 7.29052734 C-13.80812628 4.39656156 -12.92121136 2.93935965 -10.3633728 1.17977905 C-6.94161385 -0.0958454 -3.60337425 -0.00434133 0 0 Z " fill="#4EF86C" transform="translate(673.97802734375,521.70947265625)"/>
<path d="M0 0 C2.58912176 2.33856159 4.43230763 4.86461527 6 8 C6.13415472 10.6723621 6.04318541 13.32250488 6 16 C2.04 16 -1.92 16 -6 16 C-6.268125 15.05125 -6.53625 14.1025 -6.8125 13.125 C-7.74986588 9.74732727 -7.74986588 9.74732727 -11 8 C-13.18028396 7.64706549 -13.18028396 7.64706549 -15.5 7.6875 C-16.2734375 7.67074219 -17.046875 7.65398438 -17.84375 7.63671875 C-20.51618974 8.08696675 -21.39424858 8.84880286 -23 11 C-23.25069913 13.62570704 -23.25069913 13.62570704 -23 16 C-18.23289859 18.52375957 -13.50778287 20.58737369 -8.4375 22.4375 C2.92030467 26.73291105 2.92030467 26.73291105 6.15625 31.81640625 C8.18230247 37.05975499 7.61972177 43.14083468 5.875 48.375 C2.4928156 53.11005817 -1.45404145 56.26640853 -7 58 C-23.87274181 59.44383661 -23.87274181 59.44383661 -30.48828125 55.28125 C-33.62774761 52.6204103 -36.1458267 49.7083466 -38 46 C-38 44.02 -38 42.04 -38 40 C-33.71 40 -29.42 40 -25 40 C-24.690625 40.969375 -24.38125 41.93875 -24.0625 42.9375 C-22.38708015 46.10506049 -22.38708015 46.10506049 -19.97265625 46.65625 C-15.82995259 47.15254728 -12.04442989 47.17418932 -8 46 C-8 43.36 -8 40.72 -8 38 C-11.89581283 35.83565954 -15.74372812 34.40184924 -20 33.0625 C-27.57255508 30.58199679 -32.27714432 27.34212049 -37 21 C-38.44284437 16.67146689 -38.87253325 12.4281354 -37.31640625 8.09765625 C-34.52652033 2.80729166 -30.74640516 -0.62679742 -25.375 -3.3125 C-16.47442404 -5.12558029 -7.91801697 -4.75661092 0 0 Z " fill="#4DF66C" transform="translate(412,695)"/>
<path d="M0 0 C0 5.61 0 11.22 0 17 C6.6 17 13.2 17 20 17 C20 20.96 20 24.92 20 29 C13.4 29 6.8 29 0 29 C0.66 40.22 1.32 51.44 2 63 C8.46083617 65.15361206 13.13778621 63.87128839 19 61 C20.99785435 65.1205746 21.17835515 68.45194365 21 73 C14.24456554 76.61337192 7.49781269 78.37952495 -0.1171875 76.46875 C-4.35358711 74.99799995 -7.87870881 73.29965069 -11 70 C-13.51127276 64.36602075 -14.42794638 59.90444977 -14.29296875 53.78125 C-14.28872391 53.03790405 -14.28447906 52.29455811 -14.28010559 51.52868652 C-14.26349081 49.18540142 -14.22587454 46.84301923 -14.1875 44.5 C-14.17243078 42.89845004 -14.15874632 41.29688642 -14.14648438 39.6953125 C-14.11364426 35.79653417 -14.06198563 31.89841944 -14 28 C-16.97 28 -19.94 28 -23 28 C-23 24.37 -23 20.74 -23 17 C-20.03 17 -17.06 17 -14 17 C-14 11.72 -14 6.44 -14 1 C-9.17893703 0.3350258 -4.91832841 0 0 0 Z " fill="#4CF66B" transform="translate(448,676)"/>
<path d="M0 0 C0.33 0 0.66 0 1 0 C1.64273492 18.91623566 2.10458592 37.82197342 2.125 56.75 C2.12749756 57.56092102 2.12999512 58.37184204 2.13256836 59.20733643 C2.13847097 61.5288925 2.13697716 63.85031741 2.1328125 66.171875 C2.13479645 66.84759552 2.1367804 67.52331604 2.13882446 68.21951294 C2.11626801 72.89658196 1.64738715 77.3776429 1 82 C4.96 82 8.92 82 13 82 C12.938125 79.9890625 12.938125 79.9890625 12.875 77.9375 C12.86119216 73.57422161 13.59875336 70.116162 15 66 C16.49739583 67.26953125 17.99479167 68.5390625 19.4921875 69.80859375 C23.296804 72.81483218 27.35112479 72.41896276 32 72 C35.91339014 70.63882082 36.78720768 69.38155864 38.8125 65.75 C41.12680533 58.63516418 41.50339802 49.54934464 38.58203125 42.65234375 C36.8820805 39.80230287 35.94301736 38.51127918 33 37 C27.56068187 35.85949781 24.22237453 35.78049083 19 38 C17.375 35.75 17.375 35.75 16 33 C16.94180387 29.11505904 19.82832964 27.21279327 23 25 C27.47278623 22.51511876 32.0113694 22.25012673 37 23 C44.34634127 25.3787099 49.35518725 29.17950881 53 36 C58.15917751 47.27957061 57.06480135 60.54146517 53 72 C50.03144802 77.72506453 45.21665265 82.92778245 39 85 C25.43674636 85.94164111 25.43674636 85.94164111 20 82 C17.125 79.3125 17.125 79.3125 15 77 C14.67 79.31 14.34 81.62 14 84 C9.38 84 4.76 84 0 84 C0 56.28 0 28.56 0 0 Z " fill="#4EF66D" transform="translate(539,668)"/>
<path d="M0 0 C0.79075928 0.00523682 1.58151855 0.01047363 2.39624023 0.01586914 C3.67724609 0.02070312 3.67724609 0.02070312 4.98413086 0.02563477 C5.88196289 0.03401367 6.77979492 0.04239258 7.70483398 0.05102539 C8.6065332 0.05553711 9.50823242 0.06004883 10.43725586 0.06469727 C12.67234712 0.07652315 14.90730835 0.09300319 17.14233398 0.11352539 C14.5869848 5.01087911 11.87424294 9.60804379 8.57983398 14.05102539 C4.8253286 19.15107605 1.12700972 24.28466779 -2.48266602 29.48852539 C-3.04026611 30.26188232 -3.59786621 31.03523926 -4.17236328 31.83203125 C-7.12233214 35.86021205 -7.12233214 35.86021205 -7.56860352 40.59399414 C-6.72168945 41.84116211 -6.72168945 41.84116211 -5.85766602 43.11352539 C-5.44726074 43.75193359 -5.03685547 44.3903418 -4.61401367 45.0480957 C-3.07284842 47.41535054 -1.4724953 49.73344419 0.14233398 52.05102539 C0.71959229 52.88843262 1.29685059 53.72583984 1.89160156 54.58862305 C4.60901425 58.51839679 7.35376383 62.42593814 10.15405273 66.29711914 C10.83564453 67.23986694 10.83564453 67.23986694 11.53100586 68.20166016 C12.3718805 69.35849502 13.21791969 70.51160076 14.07006836 71.66015625 C16.28398481 74.69297664 17.9164572 77.56044937 19.14233398 81.11352539 C12.76345309 82.4600269 6.37497292 83.54496646 0.14233398 81.11352539 C-5.52855107 76.01448319 -8.80218188 68.73923293 -12.26879883 62.06030273 C-14.63515098 57.67157033 -17.42305764 53.60174444 -20.23266602 49.48852539 C-24.85766602 42.70682652 -24.85766602 42.70682652 -24.85766602 38.11352539 C-23.91479492 35.9855957 -23.91479492 35.9855957 -22.58422852 33.69165039 C-22.09349854 32.83796875 -21.60276855 31.98428711 -21.09716797 31.10473633 C-20.56438232 30.20013672 -20.03159668 29.29553711 -19.48266602 28.36352539 C-18.94407959 27.43572266 -18.40549316 26.50791992 -17.85058594 25.55200195 C-3.04058199 0.18581556 -3.04058199 0.18581556 0 0 Z " fill="#4DF76B" transform="translate(229.857666015625,670.886474609375)"/>
<path d="M0 0 C4.95 0 9.9 0 15 0 C16.19388403 56.09667334 16.19388403 56.09667334 16 81 C10.72 81 5.44 81 0 81 C0 54.27 0 27.54 0 0 Z " fill="#4DF86C" transform="translate(187,671)"/>
<path d="M0 0 C-0.639375 0.20625 -1.27875 0.4125 -1.9375 0.625 C-4.34925077 1.89538209 -4.34925077 1.89538209 -4.75 5.125 C-4.8325 6.07375 -4.915 7.0225 -5 8 C-2.36 8 0.28 8 3 8 C3.76681614 16.77578475 3.76681614 16.77578475 1.88671875 19.77734375 C0.5 21.125 0.5 21.125 -2 23 C-1.34 23.99 -0.68 24.98 0 26 C-0.33 26.66 -0.66 27.32 -1 28 C-0.34 28 0.32 28 1 28 C0.00081677 30.89763137 -0.92891583 31.95201819 -3.5 33.6875 C-10.08577732 36.1571665 -16.5932739 37.04971514 -23.17578125 34.15234375 C-26.97464689 31.75263205 -30.23941646 28.33706577 -31.64453125 24.01953125 C-32.72496491 17.88124331 -32.49590944 13.24386416 -29 8 C-24.11982206 2.75380872 -18.88472891 1.48191474 -12 0 C-10.3603125 -0.37125 -10.3603125 -0.37125 -8.6875 -0.75 C-5.61606484 -1.0357149 -3.00649614 -0.64424917 0 0 Z " fill="#4CF56B" transform="translate(286,718)"/>
<path d="M0 0 C4.24310464 2.42997182 6.56904265 5.34122104 8 10 C8.68258679 17.91623382 8.99529257 25.9416498 5 33 C1.62989298 36.20962574 -1.00985437 37.24812206 -5.5625 37.4375 C-9.45724694 37.23458041 -12.00053395 36.64658769 -15 34 C-18.40501209 28.7143608 -18.48670149 24.08309314 -18.4375 18 C-18.45748047 17.1234375 -18.47746094 16.246875 -18.49804688 15.34375 C-18.49382248 9.73375648 -17.79042785 6.41180946 -14 2 C-9.43043447 -1.21946662 -5.29059633 -1.72840199 0 0 Z " fill="#000301" transform="translate(572,704)"/>
<path d="M0 0 C0.78316087 8.96284102 0.78316087 8.96284102 -2.3125 13.0625 C-6.59768926 16.15182249 -10.81539772 16.74065747 -16 16 C-18.5 14.375 -18.5 14.375 -20 12 C-20.58128871 8.51226772 -20.47466684 6.77672756 -18.625 3.75 C-13.23729554 0.15819703 -6.35898058 -0.33468319 0 0 Z " fill="#010502" transform="translate(289,726)"/>
<path d="M0 0 C2.07538624 3.11307936 2.24772151 3.76348195 2.22705078 7.2878418 C2.22682419 8.57884041 2.22682419 8.57884041 2.22659302 9.8959198 C2.21627045 10.82100845 2.20594788 11.74609711 2.1953125 12.69921875 C2.1924826 13.64940384 2.18965271 14.59958893 2.18673706 15.5785675 C2.17553715 18.61500615 2.15043288 21.65115042 2.125 24.6875 C2.11496996 26.74543845 2.10584415 28.80338152 2.09765625 30.86132812 C2.07559842 35.9076656 2.04106982 40.95378288 2 46 C-2.95 46 -7.9 46 -13 46 C-13 32.47 -13 18.94 -13 5 C-12.67 5 -12.34 5 -12 5 C-12 17.87 -12 30.74 -12 44 C-8.04 44 -4.08 44 0 44 C0 29.48 0 14.96 0 0 Z " fill="#53ED72" transform="translate(653,706)"/>
<path d="M0 0 C0.33 0.66 0.66 1.32 1 2 C0.67 2.66 0.34 3.32 0 4 C-0.11704964 5.35752296 -0.17677189 6.72025888 -0.20532227 8.08251953 C-0.22526749 8.92324005 -0.24521271 9.76396057 -0.26576233 10.63015747 C-0.29083107 11.99272171 -0.29083107 11.99272171 -0.31640625 13.3828125 C-0.33718735 14.31221649 -0.35796844 15.24162048 -0.37937927 16.19918823 C-0.44487646 19.1743821 -0.50376052 22.14966577 -0.5625 25.125 C-0.60568506 27.13933228 -0.64929934 29.15365541 -0.69335938 31.16796875 C-0.80055803 36.11188663 -0.90182501 41.05589503 -1 46 C-5.62 46 -10.24 46 -15 46 C-15 45.34 -15 44.68 -15 44 C-11.04 44 -7.08 44 -3 44 C-3.01571045 42.88028809 -3.0314209 41.76057617 -3.04760742 40.60693359 C-3.10207894 36.43610889 -3.13641252 32.26531538 -3.16479492 28.09423828 C-3.1798424 26.29210108 -3.2002853 24.49000027 -3.22631836 22.68798828 C-3.26288021 20.09137979 -3.27976681 17.49525725 -3.29296875 14.8984375 C-3.31619453 13.69808365 -3.31619453 13.69808365 -3.33988953 12.47348022 C-3.34135602 7.55264974 -2.61929386 4.32017327 0 0 Z " fill="#4EE96C" transform="translate(621,706)"/>
<path d="M0 0 C0.33 0 0.66 0 1 0 C1.33 14.85 1.66 29.7 2 45 C2.66 45 3.32 45 4 45 C4.061875 45.7425 4.12375 46.485 4.1875 47.25 C5.25640387 50.86782848 6.90765572 51.93843714 10 54 C13.06957098 55.02319033 15.22440323 55.13371939 18.4375 55.125 C19.38496094 55.12757813 20.33242188 55.13015625 21.30859375 55.1328125 C23.70140459 55.01473475 25.71336153 54.68112635 28 54 C26.92578125 55.47265625 26.92578125 55.47265625 25 57 C18.92692179 57.83740582 13.00102577 57.89701155 7.375 55.375 C3.08000923 51.08000923 0.22825947 47.01164352 -0.12025452 40.88653564 C-0.11803391 40.13152771 -0.11581329 39.37651978 -0.11352539 38.59863281 C-0.11344986 37.7380426 -0.11337433 36.87745239 -0.11329651 35.99078369 C-0.10813522 35.07085632 -0.10297394 34.15092896 -0.09765625 33.203125 C-0.0962413 32.25435486 -0.09482635 31.30558472 -0.09336853 30.32806396 C-0.08777742 27.30201038 -0.07522652 24.27603117 -0.0625 21.25 C-0.05748385 19.19661565 -0.05292115 17.14323014 -0.04882812 15.08984375 C-0.03781089 10.05986724 -0.02055233 5.02994622 0 0 Z " fill="#5AFD7D" transform="translate(315,696)"/>
<path d="M0 0 C0.66 0 1.32 0 2 0 C2.98219627 1.76915475 3.96065359 3.54038569 4.9375 5.3125 C5.48277344 6.29863281 6.02804688 7.28476562 6.58984375 8.30078125 C8 11 8 11 9 14 C14.94 13.67 20.88 13.34 27 13 C27.33 13.99 27.66 14.98 28 16 C11.76547999 18.08092525 11.76547999 18.08092525 7.21679688 14.65820312 C3.91435544 10.85974282 0 5.148839 0 0 Z " fill="#56F475" transform="translate(221,736)"/>
<path d="M0 0 C8.91 0 17.82 0 27 0 C27 0.33 27 0.66 27 1 C14.13 1.99 14.13 1.99 1 3 C0.67 2.01 0.34 1.02 0 0 Z " fill="#45D05E" transform="translate(388,326)"/>
<path d="M0 0 C0.66 0 1.32 0 2 0 C2.061875 0.7425 2.12375 1.485 2.1875 2.25 C3.25640387 5.86782848 4.90765572 6.93843714 8 9 C11.06957098 10.02319033 13.22440323 10.13371939 16.4375 10.125 C17.38496094 10.12757813 18.33242188 10.13015625 19.30859375 10.1328125 C21.70140459 10.01473475 23.71336153 9.68112635 26 9 C24.92578125 10.47265625 24.92578125 10.47265625 23 12 C16.92692179 12.83740582 11.00102577 12.89701155 5.375 10.375 C2.72656943 7.72656943 0.90196104 5.2187033 -1 2 C-0.67 1.34 -0.34 0.68 0 0 Z " fill="#58EF78" transform="translate(317,741)"/>
<path d="M0 0 C2.39763185 2.39763185 2.34280586 3.33273498 2.625 6.625 C2.69976562 7.44226563 2.77453125 8.25953125 2.8515625 9.1015625 C2.92503906 10.04128906 2.92503906 10.04128906 3 11 C2.67 10.01 2.34 9.02 2 8 C0.02 8.99 0.02 8.99 -2 10 C-2 8.68 -2 7.36 -2 6 C-1.34 6 -0.68 6 0 6 C0.33 5.34 0.66 4.68 1 4 C-0.98 4 -2.96 4 -5 4 C-3.35 2.68 -1.7 1.36 0 0 Z " fill="#55F074" transform="translate(466,737)"/>
<path d="M0 0 C0.33 0.99 0.66 1.98 1 3 C4.96 3 8.92 3 13 3 C13 3.66 13 4.32 13 5 C8.38 5 3.76 5 -1 5 C-0.67 3.35 -0.34 1.7 0 0 Z " fill="#53F774" transform="translate(514,747)"/>
<path d="M0 0 C0.66 0 1.32 0 2 0 C2 0.66 2 1.32 2 2 C2.99 1.67 3.98 1.34 5 1 C7.33299825 0.96045766 9.66708189 0.95598268 12 1 C12 1.33 12 1.66 12 2 C11.38511719 2.13277344 10.77023437 2.26554688 10.13671875 2.40234375 C8.92435547 2.66724609 8.92435547 2.66724609 7.6875 2.9375 C6.48673828 3.19853516 6.48673828 3.19853516 5.26171875 3.46484375 C2.854599 3.99886159 2.854599 3.99886159 0 5 C0 3.35 0 1.7 0 0 Z " fill="#56F877" transform="translate(558,701)"/>
<path d="M0 0 C1.31157516 2.62315032 0.89649988 4.23033436 0.5625 7.125 C0.46066406 8.03507813 0.35882812 8.94515625 0.25390625 9.8828125 C0.12822266 10.93082031 0.12822266 10.93082031 0 12 C-2.31332486 8.53001271 -2.33957563 7.07490752 -2 3 C-1.34 2.01 -0.68 1.02 0 0 Z " fill="#58F879" transform="translate(661,526)"/>
<path d="M0 0 C3.36720387 1.39332574 4.9859524 2.9789286 7 6 C4 6 4 6 1.8125 4.125 C0 2 0 2 0 0 Z " fill="#4DDB69" transform="translate(608,400)"/>
<path d="M0 0 C2.1519437 3.22791555 2.20086443 4.28400809 2 8 C1.01 8.495 1.01 8.495 0 9 C-0.66 8.34 -1.32 7.68 -2 7 C-1.34 7 -0.68 7 0 7 C-0.185625 6.030625 -0.37125 5.06125 -0.5625 4.0625 C-0.706875 3.051875 -0.85125 2.04125 -1 1 C-0.67 0.67 -0.34 0.34 0 0 Z " fill="#4FDF6D" transform="translate(830,685)"/>
<path d="M0 0 C0.33 0.66 0.66 1.32 1 2 C-0.25 4.5625 -0.25 4.5625 -2 7 C-2.99 7.33 -3.98 7.66 -5 8 C-3.62845496 5.04590299 -2.01136276 2.55991624 0 0 Z " fill="#58F676" transform="translate(469,365)"/>
</svg>
